<?xml version="1.0" encoding="UTF-8" standalone="no"?>
<!-- Created with Inkscape (http://www.inkscape.org/) -->

<svg
   width="209.64301mm"
   height="105.29892mm"
   viewBox="0 0 209.64301 105.29892"
   version="1.1"
   id="svg5"
   xml:space="preserve"
   sodipodi:docname="oyt.svg"
   inkscape:version="1.2.1 (9c6d41e410, 2022-07-14, custom)"
   xmlns:inkscape="http://www.inkscape.org/namespaces/inkscape"
   xmlns:sodipodi="http://sodipodi.sourceforge.net/DTD/sodipodi-0.dtd"
   xmlns="http://www.w3.org/2000/svg"
   xmlns:svg="http://www.w3.org/2000/svg"><sodipodi:namedview
     id="namedview8"
     pagecolor="#ffffff"
     bordercolor="#000000"
     borderopacity="0.25"
     inkscape:showpageshadow="2"
     inkscape:pageopacity="0.0"
     inkscape:pagecheckerboard="0"
     inkscape:deskcolor="#d1d1d1"
     inkscape:document-units="mm"
     showgrid="false"
     inkscape:zoom="0.82558464"
     inkscape:cx="347.63244"
     inkscape:cy="267.68909"
     inkscape:window-width="1920"
     inkscape:window-height="1011"
     inkscape:window-x="0"
     inkscape:window-y="32"
     inkscape:window-maximized="1"
     inkscape:current-layer="layer1" /><defs
     id="defs2" /><g
     id="layer1"
     transform="translate(-8.3603405,-19.697159)"><path
       id="path1632"
       style="fill:#000000;stroke:none;stroke-width:0.352778"
       d="M 8.3603405,19.697159 C 11.15046,31.017021 19.36736,35.375873 27.763119,42.274936 c -2.208742,0.01827 -7.2898,0.470358 -8.113889,2.822222 3.597275,-0.464573 7.653867,-1.695838 11.288889,-1.348493 9.223022,0.881239 22.1234,8.990894 25.752778,17.57627 -17.662525,2.64548 -26.051228,23.904574 -22.260984,39.511115 3.060348,12.60157 13.556192,22.29908 26.494317,23.88799 9.874956,1.21285 20.351751,-1.61678 27.48527,-8.7503 12.17154,-12.17154 12.1345,-33.633481 0.636059,-46.168381 -4.073878,-4.440413 -9.44492,-7.003344 -15.068551,-8.833202 5.082117,-8.160596 15.79739,-16.34377 25.752782,-17.224586 3.65301,-0.323215 7.67538,0.882932 11.28889,1.349587 -0.82409,-2.351864 -5.90515,-2.803949 -8.11389,-2.822222 8.39576,-6.899381 16.6116,-11.252835 19.40277,-22.577777 l -7.40833,8.819444 v -1.411111 c -1.56245,1.471436 -2.23379,3.625391 -3.69182,5.231765 -2.26871,2.500453 -5.36822,4.335532 -8.30262,5.947162 -7.59707,4.172268 -16.634534,5.25653 -23.283337,11.046072 l 2.116667,-9.525 -2.40277,5.644444 -7.475008,15.169444 H 58.807564 l -7.475009,-15.169444 -2.402769,-5.644444 2.116667,9.525 C 44.39765,43.540949 35.360188,42.456722 27.763119,38.284419 c -2.934406,-1.61163 -6.033911,-3.446674 -8.302625,-5.947162 -1.458031,-1.606374 -2.129367,-3.760329 -3.69182,-5.231765 v 1.411111 L 8.3603405,19.697159 m 54.3277785,48.07867 c 25.865667,-3.176411 36.555891,32.703911 15.522223,46.219531 -3.076928,1.97697 -6.633281,2.89031 -10.230556,3.3207 -25.759128,3.08045 -35.814706,-32.954032 -15.169445,-46.219887 2.968626,-1.907469 6.394803,-2.892425 9.877778,-3.320344 z m 36.336111,-5.926973 14.5348,25.047221 6.0325,10.58333 0.24659,8.819453 v 18.69722 h 7.76111 v -18.34445 l 0.24659,-8.819443 4.39244,-7.76111 11.3351,-19.402777 4.83976,-8.819444 -8.25147,0.362656 -4.8828,8.10401 -11.2074,20.461115 h -0.70555 c -2.12302,-7.217838 -7.73254,-14.607121 -11.43847,-21.16667 -1.16487,-2.061634 -2.48532,-6.145036 -4.5526,-7.398455 -1.93392,-1.172634 -6.12986,-0.362656 -8.3506,-0.362656 m 53.62222,0 v 7.055555 h 16.22778 v 56.091669 h 7.76111 V 68.904411 h 16.22778 v -7.055555 h -40.21667" /></g></svg>
