<svg width="689" height="450" viewBox="0 0 689 450" fill="none" xmlns="http://www.w3.org/2000/svg">
<rect x="47" width="585" height="439" rx="17" fill="#CBCBCB"/>
<rect x="60" y="25" width="561" height="379" rx="8" fill="#2B2B2B"/>
<rect y="428" width="689" height="22" rx="5" fill="#D9D9D9"/>
<circle cx="334.5" cy="13.5" r="5.5" fill="#2B2B2B"/>
<circle cx="322" cy="14" r="2" fill="#2B2B2B"/>
<rect x="77" y="30" width="90" height="26" rx="2" fill="#CC3400"/>
<path d="M85.4307 43.833L86.6475 43.6416C86.7158 44.1292 86.9049 44.5029 87.2148 44.7627C87.5293 45.0225 87.9668 45.1523 88.5273 45.1523C89.0924 45.1523 89.5117 45.0384 89.7852 44.8105C90.0586 44.5781 90.1953 44.307 90.1953 43.9971C90.1953 43.7191 90.0745 43.5003 89.833 43.3408C89.6644 43.2314 89.2451 43.0924 88.5752 42.9238C87.6729 42.696 87.0462 42.5 86.6953 42.3359C86.349 42.1673 86.0846 41.9372 85.9023 41.6455C85.7246 41.3493 85.6357 41.0234 85.6357 40.668C85.6357 40.3444 85.7087 40.0459 85.8545 39.7725C86.0049 39.4945 86.2077 39.2643 86.4629 39.082C86.6543 38.9408 86.9141 38.8223 87.2422 38.7266C87.5749 38.6263 87.9303 38.5762 88.3086 38.5762C88.8783 38.5762 89.3773 38.6582 89.8057 38.8223C90.2386 38.9863 90.5576 39.2096 90.7627 39.4922C90.9678 39.7702 91.109 40.1439 91.1865 40.6133L89.9834 40.7773C89.9287 40.4036 89.7692 40.112 89.5049 39.9023C89.2451 39.6927 88.876 39.5879 88.3975 39.5879C87.8324 39.5879 87.429 39.6813 87.1875 39.8682C86.946 40.055 86.8252 40.2738 86.8252 40.5244C86.8252 40.6839 86.8753 40.8275 86.9756 40.9551C87.0758 41.0872 87.2331 41.1966 87.4473 41.2832C87.5703 41.3288 87.9326 41.4336 88.5342 41.5977C89.4046 41.8301 90.0107 42.0215 90.3525 42.1719C90.6989 42.3177 90.9701 42.5319 91.166 42.8145C91.362 43.097 91.46 43.4479 91.46 43.8672C91.46 44.2773 91.3392 44.6647 91.0977 45.0293C90.8607 45.3893 90.5166 45.6696 90.0654 45.8701C89.6143 46.0661 89.1038 46.1641 88.5342 46.1641C87.5908 46.1641 86.8708 45.9681 86.374 45.5762C85.8818 45.1842 85.5674 44.6032 85.4307 43.833ZM92.4648 42.3701C92.4648 41.0257 92.8385 40.0299 93.5859 39.3828C94.2103 38.8451 94.9714 38.5762 95.8691 38.5762C96.8672 38.5762 97.6829 38.9043 98.3164 39.5605C98.9499 40.2122 99.2666 41.1146 99.2666 42.2676C99.2666 43.2018 99.1253 43.9378 98.8428 44.4756C98.5648 45.0088 98.1569 45.4235 97.6191 45.7197C97.0859 46.016 96.5026 46.1641 95.8691 46.1641C94.8529 46.1641 94.0303 45.8382 93.4014 45.1865C92.777 44.5348 92.4648 43.596 92.4648 42.3701ZM93.7295 42.3701C93.7295 43.2998 93.9323 43.9971 94.3379 44.4619C94.7435 44.9222 95.2539 45.1523 95.8691 45.1523C96.4798 45.1523 96.988 44.9199 97.3936 44.4551C97.7992 43.9902 98.002 43.2816 98.002 42.3291C98.002 41.4313 97.7969 40.7523 97.3867 40.292C96.9811 39.8271 96.4753 39.5947 95.8691 39.5947C95.2539 39.5947 94.7435 39.8249 94.3379 40.2852C93.9323 40.7454 93.7295 41.4404 93.7295 42.3701ZM101.01 46V39.6973H99.9229V38.7402H101.01V37.9678C101.01 37.4801 101.053 37.1178 101.14 36.8809C101.258 36.5618 101.465 36.3044 101.762 36.1084C102.062 35.9079 102.482 35.8076 103.02 35.8076C103.366 35.8076 103.749 35.8486 104.168 35.9307L103.983 37.0039C103.728 36.9583 103.487 36.9355 103.259 36.9355C102.885 36.9355 102.621 37.0153 102.466 37.1748C102.311 37.3343 102.233 37.6328 102.233 38.0703V38.7402H103.648V39.6973H102.233V46H101.01ZM107.299 44.8994L107.477 45.9863C107.13 46.0592 106.82 46.0957 106.547 46.0957C106.1 46.0957 105.754 46.0251 105.508 45.8838C105.262 45.7425 105.089 45.5579 104.988 45.3301C104.888 45.0977 104.838 44.6123 104.838 43.874V39.6973H103.936V38.7402H104.838V36.9424L106.062 36.2041V38.7402H107.299V39.6973H106.062V43.9424C106.062 44.2933 106.082 44.5189 106.123 44.6191C106.169 44.7194 106.239 44.7992 106.335 44.8584C106.435 44.9176 106.576 44.9473 106.759 44.9473C106.896 44.9473 107.076 44.9313 107.299 44.8994ZM109.849 46L107.627 38.7402H108.898L110.054 42.9307L110.484 44.4893C110.503 44.4118 110.628 43.9128 110.86 42.9922L112.016 38.7402H113.28L114.367 42.9512L114.729 44.3389L115.146 42.9375L116.391 38.7402H117.587L115.317 46H114.039L112.884 41.6523L112.604 40.415L111.134 46H109.849ZM123.363 45.1045C122.908 45.4919 122.468 45.7653 122.044 45.9248C121.625 46.0843 121.174 46.1641 120.69 46.1641C119.893 46.1641 119.28 45.9704 118.852 45.583C118.423 45.1911 118.209 44.6921 118.209 44.0859C118.209 43.7305 118.289 43.4069 118.448 43.1152C118.612 42.819 118.824 42.582 119.084 42.4043C119.348 42.2266 119.645 42.0921 119.973 42.001C120.214 41.9372 120.579 41.8757 121.066 41.8164C122.06 41.6979 122.791 41.5566 123.261 41.3926C123.265 41.224 123.268 41.1169 123.268 41.0713C123.268 40.57 123.151 40.2168 122.919 40.0117C122.604 39.7337 122.137 39.5947 121.518 39.5947C120.939 39.5947 120.51 39.6973 120.232 39.9023C119.959 40.1029 119.756 40.4606 119.624 40.9756L118.421 40.8115C118.53 40.2965 118.71 39.8818 118.961 39.5674C119.212 39.2484 119.574 39.0046 120.048 38.8359C120.522 38.6628 121.071 38.5762 121.695 38.5762C122.315 38.5762 122.819 38.6491 123.206 38.7949C123.593 38.9408 123.878 39.1253 124.061 39.3486C124.243 39.5674 124.37 39.8454 124.443 40.1826C124.484 40.3923 124.505 40.7705 124.505 41.3174V42.958C124.505 44.1019 124.53 44.8265 124.58 45.1318C124.635 45.4326 124.74 45.722 124.895 46H123.609C123.482 45.7448 123.4 45.4463 123.363 45.1045ZM123.261 42.3564C122.814 42.5387 122.144 42.6937 121.251 42.8213C120.745 42.8942 120.387 42.9762 120.178 43.0674C119.968 43.1585 119.806 43.293 119.692 43.4707C119.578 43.6439 119.521 43.8376 119.521 44.0518C119.521 44.3799 119.645 44.6533 119.891 44.8721C120.141 45.0908 120.506 45.2002 120.984 45.2002C121.458 45.2002 121.88 45.0977 122.249 44.8926C122.618 44.6829 122.889 44.3981 123.062 44.0381C123.195 43.7601 123.261 43.3499 123.261 42.8076V42.3564ZM126.405 46V38.7402H127.513V39.8408C127.795 39.3258 128.055 38.9863 128.292 38.8223C128.534 38.6582 128.798 38.5762 129.085 38.5762C129.5 38.5762 129.921 38.7083 130.35 38.9727L129.926 40.1143C129.625 39.9365 129.324 39.8477 129.023 39.8477C128.755 39.8477 128.513 39.9297 128.299 40.0938C128.085 40.2533 127.932 40.4766 127.841 40.7637C127.704 41.2012 127.636 41.6797 127.636 42.1992V46H126.405ZM136.051 43.6621L137.322 43.8193C137.122 44.5622 136.75 45.1387 136.208 45.5488C135.666 45.959 134.973 46.1641 134.13 46.1641C133.068 46.1641 132.225 45.8382 131.601 45.1865C130.981 44.5303 130.671 43.612 130.671 42.4316C130.671 41.2103 130.985 40.2624 131.614 39.5879C132.243 38.9134 133.059 38.5762 134.062 38.5762C135.032 38.5762 135.825 38.9066 136.44 39.5674C137.056 40.2282 137.363 41.1579 137.363 42.3564C137.363 42.4294 137.361 42.5387 137.356 42.6846H131.942C131.988 43.4821 132.214 44.0928 132.619 44.5166C133.025 44.9404 133.531 45.1523 134.137 45.1523C134.588 45.1523 134.973 45.0339 135.292 44.7969C135.611 44.5599 135.864 44.1816 136.051 43.6621ZM132.011 41.6729H136.064C136.01 41.0622 135.855 40.6042 135.6 40.2988C135.208 39.8249 134.7 39.5879 134.075 39.5879C133.51 39.5879 133.034 39.777 132.646 40.1553C132.264 40.5335 132.052 41.0394 132.011 41.6729ZM139.223 46V44.5986H140.624V46H139.223ZM142.771 48.7822V38.7402H143.892V39.6836C144.156 39.3145 144.454 39.0387 144.787 38.8564C145.12 38.6696 145.523 38.5762 145.997 38.5762C146.617 38.5762 147.164 38.7357 147.638 39.0547C148.112 39.3737 148.469 39.8249 148.711 40.4082C148.952 40.987 149.073 41.6227 149.073 42.3154C149.073 43.0583 148.939 43.7282 148.67 44.3252C148.406 44.9176 148.018 45.3734 147.508 45.6924C147.002 46.0068 146.469 46.1641 145.908 46.1641C145.498 46.1641 145.129 46.0775 144.801 45.9043C144.477 45.7311 144.211 45.5124 144.001 45.248V48.7822H142.771ZM143.885 42.4111C143.885 43.3454 144.074 44.0358 144.452 44.4824C144.83 44.929 145.288 45.1523 145.826 45.1523C146.373 45.1523 146.84 44.9222 147.228 44.4619C147.619 43.9971 147.815 43.2793 147.815 42.3086C147.815 41.3835 147.624 40.6908 147.241 40.2305C146.863 39.7702 146.41 39.54 145.881 39.54C145.357 39.54 144.892 39.7861 144.486 40.2783C144.085 40.766 143.885 41.4769 143.885 42.4111ZM150.509 48.7959L150.372 47.6406C150.641 47.7135 150.876 47.75 151.076 47.75C151.35 47.75 151.568 47.7044 151.732 47.6133C151.896 47.5221 152.031 47.3945 152.136 47.2305C152.213 47.1074 152.339 46.8021 152.512 46.3145C152.535 46.2461 152.571 46.1458 152.621 46.0137L149.866 38.7402H151.192L152.703 42.9443C152.899 43.4775 153.075 44.0381 153.229 44.626C153.371 44.0609 153.539 43.5094 153.735 42.9717L155.287 38.7402H156.518L153.756 46.123C153.46 46.9206 153.229 47.4697 153.065 47.7705C152.847 48.1761 152.596 48.4723 152.313 48.6592C152.031 48.8506 151.694 48.9463 151.302 48.9463C151.065 48.9463 150.8 48.8962 150.509 48.7959Z" fill="#2B2B2B"/>
<line x1="60" y1="55.5" x2="621" y2="55.5" stroke="#CC3400"/>
<path d="M78.1865 91.5771V78.666H79.6279V79.8789C79.9678 79.4043 80.3516 79.0498 80.7793 78.8154C81.207 78.5752 81.7256 78.4551 82.335 78.4551C83.1318 78.4551 83.835 78.6602 84.4443 79.0703C85.0537 79.4805 85.5137 80.0605 85.8242 80.8105C86.1348 81.5547 86.29 82.3721 86.29 83.2627C86.29 84.2178 86.1172 85.0791 85.7715 85.8467C85.4316 86.6084 84.9336 87.1943 84.2773 87.6045C83.627 88.0088 82.9414 88.2109 82.2207 88.2109C81.6934 88.2109 81.2188 88.0996 80.7969 87.877C80.3809 87.6543 80.0381 87.373 79.7686 87.0332V91.5771H78.1865ZM79.6191 83.3857C79.6191 84.5869 79.8623 85.4746 80.3486 86.0488C80.835 86.623 81.4238 86.9102 82.1152 86.9102C82.8184 86.9102 83.4189 86.6143 83.917 86.0225C84.4209 85.4248 84.6729 84.502 84.6729 83.2539C84.6729 82.0645 84.4268 81.1738 83.9346 80.582C83.4482 79.9902 82.8652 79.6943 82.1855 79.6943C81.5117 79.6943 80.9141 80.0107 80.3926 80.6436C79.877 81.2705 79.6191 82.1846 79.6191 83.3857ZM88.1885 88V78.666H89.6123V80.0811C89.9756 79.4189 90.3096 78.9824 90.6143 78.7715C90.9248 78.5605 91.2646 78.4551 91.6338 78.4551C92.167 78.4551 92.709 78.625 93.2598 78.9648L92.7148 80.4326C92.3281 80.2041 91.9414 80.0898 91.5547 80.0898C91.209 80.0898 90.8984 80.1953 90.623 80.4062C90.3477 80.6113 90.1514 80.8984 90.0342 81.2676C89.8584 81.8301 89.7705 82.4453 89.7705 83.1133V88H88.1885ZM94.209 76.9346V75.1152H95.791V76.9346H94.209ZM94.209 88V78.666H95.791V88H94.209ZM98.208 88V78.666H99.6318V79.9932C100.317 78.9678 101.308 78.4551 102.603 78.4551C103.165 78.4551 103.681 78.5576 104.149 78.7627C104.624 78.9619 104.979 79.2256 105.213 79.5537C105.447 79.8818 105.611 80.2715 105.705 80.7227C105.764 81.0156 105.793 81.5283 105.793 82.2607V88H104.211V82.3223C104.211 81.6777 104.149 81.1973 104.026 80.8809C103.903 80.5586 103.684 80.3037 103.367 80.1162C103.057 79.9229 102.69 79.8262 102.269 79.8262C101.595 79.8262 101.012 80.04 100.52 80.4678C100.033 80.8955 99.79 81.707 99.79 82.9023V88H98.208ZM111.682 86.585L111.91 87.9824C111.465 88.0762 111.066 88.123 110.715 88.123C110.141 88.123 109.695 88.0322 109.379 87.8506C109.062 87.6689 108.84 87.4316 108.711 87.1387C108.582 86.8398 108.518 86.2158 108.518 85.2666V79.8965H107.357V78.666H108.518V76.3545L110.091 75.4053V78.666H111.682V79.8965H110.091V85.3545C110.091 85.8057 110.117 86.0957 110.17 86.2246C110.229 86.3535 110.319 86.4561 110.442 86.5322C110.571 86.6084 110.753 86.6465 110.987 86.6465C111.163 86.6465 111.395 86.626 111.682 86.585ZM116.261 91.7881C115.388 90.6865 114.649 89.3975 114.046 87.9209C113.442 86.4443 113.141 84.915 113.141 83.333C113.141 81.9385 113.366 80.6025 113.817 79.3252C114.345 77.8428 115.159 76.3662 116.261 74.8955H117.395C116.686 76.1143 116.217 76.9844 115.988 77.5059C115.631 78.3145 115.35 79.1582 115.145 80.0371C114.893 81.1328 114.767 82.2344 114.767 83.3418C114.767 86.1602 115.643 88.9756 117.395 91.7881H116.261ZM120.471 77.2773V79.1143H118.774V77.6641C118.774 76.8789 118.868 76.3105 119.056 75.959C119.302 75.4902 119.691 75.1357 120.225 74.8955L120.611 75.5107C120.289 75.6455 120.052 75.8477 119.899 76.1172C119.747 76.3809 119.662 76.7676 119.645 77.2773H120.471ZM123.195 77.2773V79.1143H121.499V77.6641C121.499 76.8789 121.593 76.3105 121.78 75.959C122.026 75.4902 122.416 75.1357 122.949 74.8955L123.336 75.5107C123.014 75.6455 122.776 75.8477 122.624 76.1172C122.472 76.3809 122.387 76.7676 122.369 77.2773H123.195ZM127.678 88L124.259 75.1152H126.008L127.968 83.5615C128.179 84.4463 128.36 85.3252 128.513 86.1982C128.841 84.8213 129.034 84.0273 129.093 83.8164L131.545 75.1152H133.602L135.447 81.6367C135.91 83.2539 136.244 84.7744 136.449 86.1982C136.613 85.3838 136.827 84.4492 137.091 83.3945L139.112 75.1152H140.826L137.293 88H135.649L132.934 78.1826C132.705 77.3623 132.57 76.8584 132.529 76.6709C132.395 77.2627 132.269 77.7666 132.151 78.1826L129.418 88H127.678ZM148.279 84.9941L149.914 85.1963C149.656 86.1514 149.179 86.8926 148.481 87.4199C147.784 87.9473 146.894 88.2109 145.81 88.2109C144.444 88.2109 143.36 87.792 142.558 86.9541C141.761 86.1104 141.362 84.9297 141.362 83.4121C141.362 81.8418 141.767 80.623 142.575 79.7559C143.384 78.8887 144.433 78.4551 145.722 78.4551C146.97 78.4551 147.989 78.8799 148.78 79.7295C149.571 80.5791 149.967 81.7744 149.967 83.3154C149.967 83.4092 149.964 83.5498 149.958 83.7373H142.997C143.056 84.7627 143.346 85.5479 143.867 86.0928C144.389 86.6377 145.039 86.9102 145.818 86.9102C146.398 86.9102 146.894 86.7578 147.304 86.4531C147.714 86.1484 148.039 85.6621 148.279 84.9941ZM143.085 82.4365H148.297C148.227 81.6514 148.027 81.0625 147.699 80.6699C147.195 80.0605 146.542 79.7559 145.739 79.7559C145.013 79.7559 144.4 79.999 143.902 80.4854C143.41 80.9717 143.138 81.6221 143.085 82.4365ZM159.512 88L155.961 78.666H157.631L159.635 84.2559C159.852 84.8594 160.051 85.4863 160.232 86.1367C160.373 85.6445 160.569 85.0527 160.821 84.3613L162.896 78.666H164.521L160.988 88H159.512ZM172.01 86.8486C171.424 87.3467 170.858 87.6982 170.313 87.9033C169.774 88.1084 169.194 88.2109 168.573 88.2109C167.548 88.2109 166.76 87.9619 166.209 87.4639C165.658 86.96 165.383 86.3184 165.383 85.5391C165.383 85.082 165.485 84.666 165.69 84.291C165.901 83.9102 166.174 83.6055 166.508 83.377C166.848 83.1484 167.229 82.9756 167.65 82.8584C167.961 82.7764 168.43 82.6973 169.057 82.6211C170.334 82.4688 171.274 82.2871 171.878 82.0762C171.884 81.8594 171.887 81.7217 171.887 81.6631C171.887 81.0186 171.737 80.5645 171.438 80.3008C171.034 79.9434 170.434 79.7646 169.637 79.7646C168.893 79.7646 168.342 79.8965 167.984 80.1602C167.633 80.418 167.372 80.8779 167.202 81.54L165.655 81.3291C165.796 80.667 166.027 80.1338 166.35 79.7295C166.672 79.3193 167.138 79.0059 167.747 78.7891C168.356 78.5664 169.062 78.4551 169.865 78.4551C170.662 78.4551 171.31 78.5488 171.808 78.7363C172.306 78.9238 172.672 79.1611 172.906 79.4482C173.141 79.7295 173.305 80.0869 173.398 80.5205C173.451 80.79 173.478 81.2764 173.478 81.9795V84.0889C173.478 85.5596 173.51 86.4912 173.574 86.8838C173.645 87.2705 173.779 87.6426 173.979 88H172.326C172.162 87.6719 172.057 87.2881 172.01 86.8486ZM171.878 83.3154C171.304 83.5498 170.442 83.749 169.294 83.9131C168.644 84.0068 168.184 84.1123 167.914 84.2295C167.645 84.3467 167.437 84.5195 167.29 84.748C167.144 84.9707 167.07 85.2197 167.07 85.4951C167.07 85.917 167.229 86.2686 167.545 86.5498C167.867 86.8311 168.336 86.9717 168.951 86.9717C169.561 86.9717 170.103 86.8398 170.577 86.5762C171.052 86.3066 171.4 85.9404 171.623 85.4775C171.793 85.1201 171.878 84.5928 171.878 83.8955V83.3154ZM175.903 88V75.1152H177.485V88H175.903ZM186.063 88V86.6289C185.337 87.6836 184.35 88.2109 183.102 88.2109C182.551 88.2109 182.035 88.1055 181.555 87.8945C181.08 87.6836 180.726 87.4199 180.491 87.1035C180.263 86.7812 180.102 86.3887 180.008 85.9258C179.943 85.6152 179.911 85.123 179.911 84.4492V78.666H181.493V83.8428C181.493 84.6689 181.525 85.2256 181.59 85.5127C181.689 85.9287 181.9 86.2568 182.223 86.4971C182.545 86.7314 182.943 86.8486 183.418 86.8486C183.893 86.8486 184.338 86.7285 184.754 86.4883C185.17 86.2422 185.463 85.9111 185.633 85.4951C185.809 85.0732 185.896 84.4639 185.896 83.667V78.666H187.479V88H186.063ZM196.355 84.9941L197.99 85.1963C197.732 86.1514 197.255 86.8926 196.558 87.4199C195.86 87.9473 194.97 88.2109 193.886 88.2109C192.521 88.2109 191.437 87.792 190.634 86.9541C189.837 86.1104 189.438 84.9297 189.438 83.4121C189.438 81.8418 189.843 80.623 190.651 79.7559C191.46 78.8887 192.509 78.4551 193.798 78.4551C195.046 78.4551 196.065 78.8799 196.856 79.7295C197.647 80.5791 198.043 81.7744 198.043 83.3154C198.043 83.4092 198.04 83.5498 198.034 83.7373H191.073C191.132 84.7627 191.422 85.5479 191.943 86.0928C192.465 86.6377 193.115 86.9102 193.895 86.9102C194.475 86.9102 194.97 86.7578 195.38 86.4531C195.79 86.1484 196.115 85.6621 196.355 84.9941ZM191.161 82.4365H196.373C196.303 81.6514 196.104 81.0625 195.775 80.6699C195.271 80.0605 194.618 79.7559 193.815 79.7559C193.089 79.7559 192.477 79.999 191.979 80.4854C191.486 80.9717 191.214 81.6221 191.161 82.4365ZM204.925 91.5947L204.749 90.1094C205.095 90.2031 205.396 90.25 205.654 90.25C206.006 90.25 206.287 90.1914 206.498 90.0742C206.709 89.957 206.882 89.793 207.017 89.582C207.116 89.4238 207.277 89.0312 207.5 88.4043C207.529 88.3164 207.576 88.1875 207.641 88.0176L204.099 78.666H205.804L207.746 84.0713C207.998 84.7568 208.224 85.4775 208.423 86.2334C208.604 85.5068 208.821 84.7979 209.073 84.1064L211.068 78.666H212.65L209.1 88.1582C208.719 89.1836 208.423 89.8896 208.212 90.2764C207.931 90.7979 207.608 91.1787 207.245 91.4189C206.882 91.665 206.448 91.7881 205.944 91.7881C205.64 91.7881 205.3 91.7236 204.925 91.5947ZM213.406 83.333C213.406 81.6045 213.887 80.3242 214.848 79.4922C215.65 78.8008 216.629 78.4551 217.783 78.4551C219.066 78.4551 220.115 78.877 220.93 79.7207C221.744 80.5586 222.151 81.7188 222.151 83.2012C222.151 84.4023 221.97 85.3486 221.606 86.04C221.249 86.7256 220.725 87.2588 220.033 87.6396C219.348 88.0205 218.598 88.2109 217.783 88.2109C216.477 88.2109 215.419 87.792 214.61 86.9541C213.808 86.1162 213.406 84.9092 213.406 83.333ZM215.032 83.333C215.032 84.5283 215.293 85.4248 215.814 86.0225C216.336 86.6143 216.992 86.9102 217.783 86.9102C218.568 86.9102 219.222 86.6113 219.743 86.0137C220.265 85.416 220.525 84.5049 220.525 83.2803C220.525 82.126 220.262 81.2529 219.734 80.6611C219.213 80.0635 218.562 79.7646 217.783 79.7646C216.992 79.7646 216.336 80.0605 215.814 80.6523C215.293 81.2441 215.032 82.1377 215.032 83.333ZM230.132 88V86.6289C229.405 87.6836 228.418 88.2109 227.17 88.2109C226.619 88.2109 226.104 88.1055 225.623 87.8945C225.148 87.6836 224.794 87.4199 224.56 87.1035C224.331 86.7812 224.17 86.3887 224.076 85.9258C224.012 85.6152 223.979 85.123 223.979 84.4492V78.666H225.562V83.8428C225.562 84.6689 225.594 85.2256 225.658 85.5127C225.758 85.9287 225.969 86.2568 226.291 86.4971C226.613 86.7314 227.012 86.8486 227.486 86.8486C227.961 86.8486 228.406 86.7285 228.822 86.4883C229.238 86.2422 229.531 85.9111 229.701 85.4951C229.877 85.0732 229.965 84.4639 229.965 83.667V78.666H231.547V88H230.132ZM234.017 88V78.666H235.44V80.0811C235.804 79.4189 236.138 78.9824 236.442 78.7715C236.753 78.5605 237.093 78.4551 237.462 78.4551C237.995 78.4551 238.537 78.625 239.088 78.9648L238.543 80.4326C238.156 80.2041 237.77 80.0898 237.383 80.0898C237.037 80.0898 236.727 80.1953 236.451 80.4062C236.176 80.6113 235.979 80.8984 235.862 81.2676C235.687 81.8301 235.599 82.4453 235.599 83.1133V88H234.017ZM245.038 91.5771V78.666H246.479V79.8789C246.819 79.4043 247.203 79.0498 247.631 78.8154C248.059 78.5752 248.577 78.4551 249.187 78.4551C249.983 78.4551 250.687 78.6602 251.296 79.0703C251.905 79.4805 252.365 80.0605 252.676 80.8105C252.986 81.5547 253.142 82.3721 253.142 83.2627C253.142 84.2178 252.969 85.0791 252.623 85.8467C252.283 86.6084 251.785 87.1943 251.129 87.6045C250.479 88.0088 249.793 88.2109 249.072 88.2109C248.545 88.2109 248.07 88.0996 247.648 87.877C247.232 87.6543 246.89 87.373 246.62 87.0332V91.5771H245.038ZM246.471 83.3857C246.471 84.5869 246.714 85.4746 247.2 86.0488C247.687 86.623 248.275 86.9102 248.967 86.9102C249.67 86.9102 250.271 86.6143 250.769 86.0225C251.272 85.4248 251.524 84.502 251.524 83.2539C251.524 82.0645 251.278 81.1738 250.786 80.582C250.3 79.9902 249.717 79.6943 249.037 79.6943C248.363 79.6943 247.766 80.0107 247.244 80.6436C246.729 81.2705 246.471 82.1846 246.471 83.3857ZM255.04 88V78.666H256.464V80.0811C256.827 79.4189 257.161 78.9824 257.466 78.7715C257.776 78.5605 258.116 78.4551 258.485 78.4551C259.019 78.4551 259.561 78.625 260.111 78.9648L259.566 80.4326C259.18 80.2041 258.793 80.0898 258.406 80.0898C258.061 80.0898 257.75 80.1953 257.475 80.4062C257.199 80.6113 257.003 80.8984 256.886 81.2676C256.71 81.8301 256.622 82.4453 256.622 83.1133V88H255.04ZM261.061 76.9346V75.1152H262.643V76.9346H261.061ZM261.061 88V78.666H262.643V88H261.061ZM267.652 88L264.102 78.666H265.771L267.775 84.2559C267.992 84.8594 268.191 85.4863 268.373 86.1367C268.514 85.6445 268.71 85.0527 268.962 84.3613L271.036 78.666H272.662L269.129 88H267.652ZM280.15 86.8486C279.564 87.3467 278.999 87.6982 278.454 87.9033C277.915 88.1084 277.335 88.2109 276.714 88.2109C275.688 88.2109 274.9 87.9619 274.35 87.4639C273.799 86.96 273.523 86.3184 273.523 85.5391C273.523 85.082 273.626 84.666 273.831 84.291C274.042 83.9102 274.314 83.6055 274.648 83.377C274.988 83.1484 275.369 82.9756 275.791 82.8584C276.102 82.7764 276.57 82.6973 277.197 82.6211C278.475 82.4688 279.415 82.2871 280.019 82.0762C280.024 81.8594 280.027 81.7217 280.027 81.6631C280.027 81.0186 279.878 80.5645 279.579 80.3008C279.175 79.9434 278.574 79.7646 277.777 79.7646C277.033 79.7646 276.482 79.8965 276.125 80.1602C275.773 80.418 275.513 80.8779 275.343 81.54L273.796 81.3291C273.937 80.667 274.168 80.1338 274.49 79.7295C274.812 79.3193 275.278 79.0059 275.888 78.7891C276.497 78.5664 277.203 78.4551 278.006 78.4551C278.803 78.4551 279.45 78.5488 279.948 78.7363C280.446 78.9238 280.812 79.1611 281.047 79.4482C281.281 79.7295 281.445 80.0869 281.539 80.5205C281.592 80.79 281.618 81.2764 281.618 81.9795V84.0889C281.618 85.5596 281.65 86.4912 281.715 86.8838C281.785 87.2705 281.92 87.6426 282.119 88H280.467C280.303 87.6719 280.197 87.2881 280.15 86.8486ZM280.019 83.3154C279.444 83.5498 278.583 83.749 277.435 83.9131C276.784 84.0068 276.324 84.1123 276.055 84.2295C275.785 84.3467 275.577 84.5195 275.431 84.748C275.284 84.9707 275.211 85.2197 275.211 85.4951C275.211 85.917 275.369 86.2686 275.686 86.5498C276.008 86.8311 276.477 86.9717 277.092 86.9717C277.701 86.9717 278.243 86.8398 278.718 86.5762C279.192 86.3066 279.541 85.9404 279.764 85.4775C279.934 85.1201 280.019 84.5928 280.019 83.8955V83.3154ZM290.17 84.5811L291.726 84.7832C291.556 85.8555 291.119 86.6963 290.416 87.3057C289.719 87.9092 288.86 88.2109 287.841 88.2109C286.563 88.2109 285.535 87.7949 284.756 86.9629C283.982 86.125 283.596 84.9268 283.596 83.3682C283.596 82.3604 283.763 81.4785 284.097 80.7227C284.431 79.9668 284.938 79.4014 285.617 79.0264C286.303 78.6455 287.047 78.4551 287.85 78.4551C288.863 78.4551 289.692 78.7129 290.337 79.2285C290.981 79.7383 291.395 80.4648 291.576 81.4082L290.038 81.6455C289.892 81.0186 289.631 80.5469 289.256 80.2305C288.887 79.9141 288.438 79.7559 287.911 79.7559C287.114 79.7559 286.467 80.043 285.969 80.6172C285.471 81.1855 285.222 82.0879 285.222 83.3242C285.222 84.5781 285.462 85.4893 285.942 86.0576C286.423 86.626 287.05 86.9102 287.823 86.9102C288.444 86.9102 288.963 86.7197 289.379 86.3389C289.795 85.958 290.059 85.3721 290.17 84.5811ZM293.009 91.5947L292.833 90.1094C293.179 90.2031 293.48 90.25 293.738 90.25C294.09 90.25 294.371 90.1914 294.582 90.0742C294.793 89.957 294.966 89.793 295.101 89.582C295.2 89.4238 295.361 89.0312 295.584 88.4043C295.613 88.3164 295.66 88.1875 295.725 88.0176L292.183 78.666H293.888L295.83 84.0713C296.082 84.7568 296.308 85.4775 296.507 86.2334C296.688 85.5068 296.905 84.7979 297.157 84.1064L299.152 78.666H300.734L297.184 88.1582C296.803 89.1836 296.507 89.8896 296.296 90.2764C296.015 90.7979 295.692 91.1787 295.329 91.4189C294.966 91.665 294.532 91.7881 294.028 91.7881C293.724 91.7881 293.384 91.7236 293.009 91.5947ZM302.923 84.8008L302.439 77.9717V75.1152H304.399V77.9717L303.942 84.8008H302.923ZM302.51 88V86.1982H304.329V88H302.51ZM306.667 76.8203V74.9834H308.363V76.4336C308.363 77.2188 308.272 77.7842 308.091 78.1299C307.839 78.6045 307.446 78.9619 306.913 79.2021L306.526 78.5781C306.843 78.4492 307.077 78.2471 307.229 77.9717C307.388 77.6904 307.476 77.3066 307.493 76.8203H306.667ZM309.392 76.8203V74.9834H311.088V76.4336C311.088 77.2188 310.997 77.7842 310.815 78.1299C310.563 78.6045 310.171 78.9619 309.638 79.2021L309.251 78.5781C309.567 78.4492 309.802 78.2471 309.954 77.9717C310.112 77.6904 310.2 77.3066 310.218 76.8203H309.392ZM314.12 91.7881H312.986C314.738 88.9756 315.614 86.1602 315.614 83.3418C315.614 82.2402 315.488 81.1475 315.236 80.0635C315.037 79.1846 314.759 78.3408 314.401 77.5322C314.173 77.0049 313.701 76.126 312.986 74.8955H314.12C315.222 76.3662 316.036 77.8428 316.563 79.3252C317.015 80.6025 317.24 81.9385 317.24 83.333C317.24 84.915 316.936 86.4443 316.326 87.9209C315.723 89.3975 314.987 90.6865 314.12 91.7881ZM84.2422 130V128.822C83.6504 129.748 82.7803 130.211 81.6318 130.211C80.8877 130.211 80.2021 130.006 79.5752 129.596C78.9541 129.186 78.4707 128.614 78.125 127.882C77.7852 127.144 77.6152 126.297 77.6152 125.342C77.6152 124.41 77.7705 123.566 78.0811 122.811C78.3916 122.049 78.8574 121.466 79.4785 121.062C80.0996 120.657 80.7939 120.455 81.5615 120.455C82.124 120.455 82.625 120.575 83.0645 120.815C83.5039 121.05 83.8613 121.357 84.1367 121.738V117.115H85.71V130H84.2422ZM79.2412 125.342C79.2412 126.537 79.4932 127.431 79.9971 128.022C80.501 128.614 81.0957 128.91 81.7812 128.91C82.4727 128.91 83.0586 128.629 83.5391 128.066C84.0254 127.498 84.2686 126.634 84.2686 125.474C84.2686 124.196 84.0225 123.259 83.5303 122.661C83.0381 122.063 82.4316 121.765 81.7109 121.765C81.0078 121.765 80.4189 122.052 79.9443 122.626C79.4756 123.2 79.2412 124.105 79.2412 125.342ZM87.6172 125.333C87.6172 123.604 88.0977 122.324 89.0586 121.492C89.8613 120.801 90.8398 120.455 91.9941 120.455C93.2773 120.455 94.3262 120.877 95.1406 121.721C95.9551 122.559 96.3623 123.719 96.3623 125.201C96.3623 126.402 96.1807 127.349 95.8174 128.04C95.46 128.726 94.9355 129.259 94.2441 129.64C93.5586 130.021 92.8086 130.211 91.9941 130.211C90.6875 130.211 89.6299 129.792 88.8213 128.954C88.0186 128.116 87.6172 126.909 87.6172 125.333ZM89.2432 125.333C89.2432 126.528 89.5039 127.425 90.0254 128.022C90.5469 128.614 91.2031 128.91 91.9941 128.91C92.7793 128.91 93.4326 128.611 93.9541 128.014C94.4756 127.416 94.7363 126.505 94.7363 125.28C94.7363 124.126 94.4727 123.253 93.9453 122.661C93.4238 122.063 92.7734 121.765 91.9941 121.765C91.2031 121.765 90.5469 122.061 90.0254 122.652C89.5039 123.244 89.2432 124.138 89.2432 125.333ZM96.7666 133.577V132.435H107.252V133.577H96.7666ZM107.612 127.214L109.177 126.968C109.265 127.595 109.508 128.075 109.906 128.409C110.311 128.743 110.873 128.91 111.594 128.91C112.32 128.91 112.859 128.764 113.211 128.471C113.562 128.172 113.738 127.823 113.738 127.425C113.738 127.067 113.583 126.786 113.272 126.581C113.056 126.44 112.517 126.262 111.655 126.045C110.495 125.752 109.689 125.5 109.238 125.289C108.793 125.072 108.453 124.776 108.219 124.401C107.99 124.021 107.876 123.602 107.876 123.145C107.876 122.729 107.97 122.345 108.157 121.993C108.351 121.636 108.611 121.34 108.939 121.105C109.186 120.924 109.52 120.771 109.941 120.648C110.369 120.52 110.826 120.455 111.312 120.455C112.045 120.455 112.687 120.561 113.237 120.771C113.794 120.982 114.204 121.27 114.468 121.633C114.731 121.99 114.913 122.471 115.013 123.074L113.466 123.285C113.396 122.805 113.19 122.43 112.851 122.16C112.517 121.891 112.042 121.756 111.427 121.756C110.7 121.756 110.182 121.876 109.871 122.116C109.561 122.356 109.405 122.638 109.405 122.96C109.405 123.165 109.47 123.35 109.599 123.514C109.728 123.684 109.93 123.824 110.205 123.936C110.363 123.994 110.829 124.129 111.603 124.34C112.722 124.639 113.501 124.885 113.94 125.078C114.386 125.266 114.734 125.541 114.986 125.904C115.238 126.268 115.364 126.719 115.364 127.258C115.364 127.785 115.209 128.283 114.898 128.752C114.594 129.215 114.151 129.575 113.571 129.833C112.991 130.085 112.335 130.211 111.603 130.211C110.39 130.211 109.464 129.959 108.825 129.455C108.192 128.951 107.788 128.204 107.612 127.214ZM120.699 128.585L120.928 129.982C120.482 130.076 120.084 130.123 119.732 130.123C119.158 130.123 118.713 130.032 118.396 129.851C118.08 129.669 117.857 129.432 117.729 129.139C117.6 128.84 117.535 128.216 117.535 127.267V121.896H116.375V120.666H117.535V118.354L119.108 117.405V120.666H120.699V121.896H119.108V127.354C119.108 127.806 119.135 128.096 119.188 128.225C119.246 128.354 119.337 128.456 119.46 128.532C119.589 128.608 119.771 128.646 120.005 128.646C120.181 128.646 120.412 128.626 120.699 128.585ZM128.372 130V128.629C127.646 129.684 126.658 130.211 125.41 130.211C124.859 130.211 124.344 130.105 123.863 129.895C123.389 129.684 123.034 129.42 122.8 129.104C122.571 128.781 122.41 128.389 122.316 127.926C122.252 127.615 122.22 127.123 122.22 126.449V120.666H123.802V125.843C123.802 126.669 123.834 127.226 123.898 127.513C123.998 127.929 124.209 128.257 124.531 128.497C124.854 128.731 125.252 128.849 125.727 128.849C126.201 128.849 126.646 128.729 127.062 128.488C127.479 128.242 127.771 127.911 127.941 127.495C128.117 127.073 128.205 126.464 128.205 125.667V120.666H129.787V130H128.372ZM132.652 130V121.896H131.255V120.666H132.652V119.673C132.652 119.046 132.708 118.58 132.819 118.275C132.972 117.865 133.238 117.534 133.619 117.282C134.006 117.024 134.545 116.896 135.236 116.896C135.682 116.896 136.174 116.948 136.713 117.054L136.476 118.434C136.147 118.375 135.837 118.346 135.544 118.346C135.063 118.346 134.724 118.448 134.524 118.653C134.325 118.858 134.226 119.242 134.226 119.805V120.666H136.045V121.896H134.226V130H132.652ZM137.328 130V121.896H135.931V120.666H137.328V119.673C137.328 119.046 137.384 118.58 137.495 118.275C137.647 117.865 137.914 117.534 138.295 117.282C138.682 117.024 139.221 116.896 139.912 116.896C140.357 116.896 140.85 116.948 141.389 117.054L141.151 118.434C140.823 118.375 140.513 118.346 140.22 118.346C139.739 118.346 139.399 118.448 139.2 118.653C139.001 118.858 138.901 119.242 138.901 119.805V120.666H140.721V121.896H138.901V130H137.328ZM144.983 133.788C144.11 132.687 143.372 131.397 142.769 129.921C142.165 128.444 141.863 126.915 141.863 125.333C141.863 123.938 142.089 122.603 142.54 121.325C143.067 119.843 143.882 118.366 144.983 116.896H146.117C145.408 118.114 144.939 118.984 144.711 119.506C144.354 120.314 144.072 121.158 143.867 122.037C143.615 123.133 143.489 124.234 143.489 125.342C143.489 128.16 144.365 130.976 146.117 133.788H144.983ZM148.991 133.788H147.857C149.609 130.976 150.485 128.16 150.485 125.342C150.485 124.24 150.359 123.147 150.107 122.063C149.908 121.185 149.63 120.341 149.272 119.532C149.044 119.005 148.572 118.126 147.857 116.896H148.991C150.093 118.366 150.907 119.843 151.435 121.325C151.886 122.603 152.111 123.938 152.111 125.333C152.111 126.915 151.807 128.444 151.197 129.921C150.594 131.397 149.858 132.687 148.991 133.788ZM78.1953 160.935V159.115H79.7773V160.935H78.1953ZM78.1953 172V162.666H79.7773V172H78.1953ZM82.1943 172V162.666H83.6182V163.993C84.3037 162.968 85.2939 162.455 86.5889 162.455C87.1514 162.455 87.667 162.558 88.1357 162.763C88.6104 162.962 88.9648 163.226 89.1992 163.554C89.4336 163.882 89.5977 164.271 89.6914 164.723C89.75 165.016 89.7793 165.528 89.7793 166.261V172H88.1973V166.322C88.1973 165.678 88.1357 165.197 88.0127 164.881C87.8896 164.559 87.6699 164.304 87.3535 164.116C87.043 163.923 86.6768 163.826 86.2549 163.826C85.5811 163.826 84.998 164.04 84.5059 164.468C84.0195 164.896 83.7764 165.707 83.7764 166.902V172H82.1943ZM91.5811 169.214L93.1455 168.968C93.2334 169.595 93.4766 170.075 93.875 170.409C94.2793 170.743 94.8418 170.91 95.5625 170.91C96.2891 170.91 96.8281 170.764 97.1797 170.471C97.5312 170.172 97.707 169.823 97.707 169.425C97.707 169.067 97.5518 168.786 97.2412 168.581C97.0244 168.44 96.4854 168.262 95.624 168.045C94.4639 167.752 93.6582 167.5 93.207 167.289C92.7617 167.072 92.4219 166.776 92.1875 166.401C91.959 166.021 91.8447 165.602 91.8447 165.145C91.8447 164.729 91.9385 164.345 92.126 163.993C92.3193 163.636 92.5801 163.34 92.9082 163.105C93.1543 162.924 93.4883 162.771 93.9102 162.648C94.3379 162.52 94.7949 162.455 95.2812 162.455C96.0137 162.455 96.6553 162.561 97.2061 162.771C97.7627 162.982 98.1729 163.27 98.4365 163.633C98.7002 163.99 98.8818 164.471 98.9814 165.074L97.4346 165.285C97.3643 164.805 97.1592 164.43 96.8193 164.16C96.4854 163.891 96.0107 163.756 95.3955 163.756C94.6689 163.756 94.1504 163.876 93.8398 164.116C93.5293 164.356 93.374 164.638 93.374 164.96C93.374 165.165 93.4385 165.35 93.5674 165.514C93.6963 165.684 93.8984 165.824 94.1738 165.936C94.332 165.994 94.7979 166.129 95.5713 166.34C96.6904 166.639 97.4697 166.885 97.9092 167.078C98.3545 167.266 98.7031 167.541 98.9551 167.904C99.207 168.268 99.333 168.719 99.333 169.258C99.333 169.785 99.1777 170.283 98.8672 170.752C98.5625 171.215 98.1201 171.575 97.54 171.833C96.96 172.085 96.3037 172.211 95.5713 172.211C94.3584 172.211 93.4326 171.959 92.7939 171.455C92.1611 170.951 91.7568 170.204 91.5811 169.214ZM104.668 170.585L104.896 171.982C104.451 172.076 104.053 172.123 103.701 172.123C103.127 172.123 102.682 172.032 102.365 171.851C102.049 171.669 101.826 171.432 101.697 171.139C101.568 170.84 101.504 170.216 101.504 169.267V163.896H100.344V162.666H101.504V160.354L103.077 159.405V162.666H104.668V163.896H103.077V169.354C103.077 169.806 103.104 170.096 103.156 170.225C103.215 170.354 103.306 170.456 103.429 170.532C103.558 170.608 103.739 170.646 103.974 170.646C104.149 170.646 104.381 170.626 104.668 170.585ZM112.314 170.849C111.729 171.347 111.163 171.698 110.618 171.903C110.079 172.108 109.499 172.211 108.878 172.211C107.853 172.211 107.064 171.962 106.514 171.464C105.963 170.96 105.688 170.318 105.688 169.539C105.688 169.082 105.79 168.666 105.995 168.291C106.206 167.91 106.479 167.605 106.812 167.377C107.152 167.148 107.533 166.976 107.955 166.858C108.266 166.776 108.734 166.697 109.361 166.621C110.639 166.469 111.579 166.287 112.183 166.076C112.188 165.859 112.191 165.722 112.191 165.663C112.191 165.019 112.042 164.564 111.743 164.301C111.339 163.943 110.738 163.765 109.941 163.765C109.197 163.765 108.646 163.896 108.289 164.16C107.938 164.418 107.677 164.878 107.507 165.54L105.96 165.329C106.101 164.667 106.332 164.134 106.654 163.729C106.977 163.319 107.442 163.006 108.052 162.789C108.661 162.566 109.367 162.455 110.17 162.455C110.967 162.455 111.614 162.549 112.112 162.736C112.61 162.924 112.977 163.161 113.211 163.448C113.445 163.729 113.609 164.087 113.703 164.521C113.756 164.79 113.782 165.276 113.782 165.979V168.089C113.782 169.56 113.814 170.491 113.879 170.884C113.949 171.271 114.084 171.643 114.283 172H112.631C112.467 171.672 112.361 171.288 112.314 170.849ZM112.183 167.315C111.608 167.55 110.747 167.749 109.599 167.913C108.948 168.007 108.488 168.112 108.219 168.229C107.949 168.347 107.741 168.52 107.595 168.748C107.448 168.971 107.375 169.22 107.375 169.495C107.375 169.917 107.533 170.269 107.85 170.55C108.172 170.831 108.641 170.972 109.256 170.972C109.865 170.972 110.407 170.84 110.882 170.576C111.356 170.307 111.705 169.94 111.928 169.478C112.098 169.12 112.183 168.593 112.183 167.896V167.315ZM116.208 172V159.115H117.79V172H116.208ZM120.216 172V159.115H121.798V172H120.216ZM122.8 175.577V174.435H133.285V175.577H122.8ZM134.278 172V162.666H135.693V163.976C135.986 163.519 136.376 163.152 136.862 162.877C137.349 162.596 137.902 162.455 138.523 162.455C139.215 162.455 139.78 162.599 140.22 162.886C140.665 163.173 140.979 163.574 141.16 164.09C141.898 163 142.859 162.455 144.043 162.455C144.969 162.455 145.681 162.713 146.179 163.229C146.677 163.738 146.926 164.526 146.926 165.593V172H145.353V166.12C145.353 165.487 145.3 165.033 145.194 164.758C145.095 164.477 144.91 164.251 144.641 164.081C144.371 163.911 144.055 163.826 143.691 163.826C143.035 163.826 142.49 164.046 142.057 164.485C141.623 164.919 141.406 165.616 141.406 166.577V172H139.824V165.936C139.824 165.232 139.695 164.705 139.438 164.354C139.18 164.002 138.758 163.826 138.172 163.826C137.727 163.826 137.313 163.943 136.933 164.178C136.558 164.412 136.285 164.755 136.115 165.206C135.945 165.657 135.86 166.308 135.86 167.157V172H134.278ZM155.363 170.849C154.777 171.347 154.212 171.698 153.667 171.903C153.128 172.108 152.548 172.211 151.927 172.211C150.901 172.211 150.113 171.962 149.562 171.464C149.012 170.96 148.736 170.318 148.736 169.539C148.736 169.082 148.839 168.666 149.044 168.291C149.255 167.91 149.527 167.605 149.861 167.377C150.201 167.148 150.582 166.976 151.004 166.858C151.314 166.776 151.783 166.697 152.41 166.621C153.688 166.469 154.628 166.287 155.231 166.076C155.237 165.859 155.24 165.722 155.24 165.663C155.24 165.019 155.091 164.564 154.792 164.301C154.388 163.943 153.787 163.765 152.99 163.765C152.246 163.765 151.695 163.896 151.338 164.16C150.986 164.418 150.726 164.878 150.556 165.54L149.009 165.329C149.149 164.667 149.381 164.134 149.703 163.729C150.025 163.319 150.491 163.006 151.101 162.789C151.71 162.566 152.416 162.455 153.219 162.455C154.016 162.455 154.663 162.549 155.161 162.736C155.659 162.924 156.025 163.161 156.26 163.448C156.494 163.729 156.658 164.087 156.752 164.521C156.805 164.79 156.831 165.276 156.831 165.979V168.089C156.831 169.56 156.863 170.491 156.928 170.884C156.998 171.271 157.133 171.643 157.332 172H155.68C155.516 171.672 155.41 171.288 155.363 170.849ZM155.231 167.315C154.657 167.55 153.796 167.749 152.647 167.913C151.997 168.007 151.537 168.112 151.268 168.229C150.998 168.347 150.79 168.52 150.644 168.748C150.497 168.971 150.424 169.22 150.424 169.495C150.424 169.917 150.582 170.269 150.898 170.55C151.221 170.831 151.689 170.972 152.305 170.972C152.914 170.972 153.456 170.84 153.931 170.576C154.405 170.307 154.754 169.94 154.977 169.478C155.146 169.12 155.231 168.593 155.231 167.896V167.315ZM159.257 172V159.115H160.839V172H159.257ZM165.022 172L162.166 162.666H163.801L165.286 168.054L165.84 170.058C165.863 169.958 166.024 169.316 166.323 168.133L167.809 162.666H169.435L170.832 168.08L171.298 169.864L171.834 168.062L173.434 162.666H174.972L172.054 172H170.41L168.925 166.41L168.564 164.819L166.675 172H165.022ZM182.398 170.849C181.812 171.347 181.247 171.698 180.702 171.903C180.163 172.108 179.583 172.211 178.962 172.211C177.937 172.211 177.148 171.962 176.598 171.464C176.047 170.96 175.771 170.318 175.771 169.539C175.771 169.082 175.874 168.666 176.079 168.291C176.29 167.91 176.562 167.605 176.896 167.377C177.236 167.148 177.617 166.976 178.039 166.858C178.35 166.776 178.818 166.697 179.445 166.621C180.723 166.469 181.663 166.287 182.267 166.076C182.272 165.859 182.275 165.722 182.275 165.663C182.275 165.019 182.126 164.564 181.827 164.301C181.423 163.943 180.822 163.765 180.025 163.765C179.281 163.765 178.73 163.896 178.373 164.16C178.021 164.418 177.761 164.878 177.591 165.54L176.044 165.329C176.185 164.667 176.416 164.134 176.738 163.729C177.061 163.319 177.526 163.006 178.136 162.789C178.745 162.566 179.451 162.455 180.254 162.455C181.051 162.455 181.698 162.549 182.196 162.736C182.694 162.924 183.061 163.161 183.295 163.448C183.529 163.729 183.693 164.087 183.787 164.521C183.84 164.79 183.866 165.276 183.866 165.979V168.089C183.866 169.56 183.898 170.491 183.963 170.884C184.033 171.271 184.168 171.643 184.367 172H182.715C182.551 171.672 182.445 171.288 182.398 170.849ZM182.267 167.315C181.692 167.55 180.831 167.749 179.683 167.913C179.032 168.007 178.572 168.112 178.303 168.229C178.033 168.347 177.825 168.52 177.679 168.748C177.532 168.971 177.459 169.22 177.459 169.495C177.459 169.917 177.617 170.269 177.934 170.55C178.256 170.831 178.725 170.972 179.34 170.972C179.949 170.972 180.491 170.84 180.966 170.576C181.44 170.307 181.789 169.94 182.012 169.478C182.182 169.12 182.267 168.593 182.267 167.896V167.315ZM186.31 172V162.666H187.733V164.081C188.097 163.419 188.431 162.982 188.735 162.771C189.046 162.561 189.386 162.455 189.755 162.455C190.288 162.455 190.83 162.625 191.381 162.965L190.836 164.433C190.449 164.204 190.062 164.09 189.676 164.09C189.33 164.09 189.02 164.195 188.744 164.406C188.469 164.611 188.272 164.898 188.155 165.268C187.979 165.83 187.892 166.445 187.892 167.113V172H186.31ZM198.711 168.994L200.346 169.196C200.088 170.151 199.61 170.893 198.913 171.42C198.216 171.947 197.325 172.211 196.241 172.211C194.876 172.211 193.792 171.792 192.989 170.954C192.192 170.11 191.794 168.93 191.794 167.412C191.794 165.842 192.198 164.623 193.007 163.756C193.815 162.889 194.864 162.455 196.153 162.455C197.401 162.455 198.421 162.88 199.212 163.729C200.003 164.579 200.398 165.774 200.398 167.315C200.398 167.409 200.396 167.55 200.39 167.737H193.429C193.487 168.763 193.777 169.548 194.299 170.093C194.82 170.638 195.471 170.91 196.25 170.91C196.83 170.91 197.325 170.758 197.735 170.453C198.146 170.148 198.471 169.662 198.711 168.994ZM193.517 166.437H198.729C198.658 165.651 198.459 165.062 198.131 164.67C197.627 164.061 196.974 163.756 196.171 163.756C195.444 163.756 194.832 163.999 194.334 164.485C193.842 164.972 193.569 165.622 193.517 166.437ZM205.364 175.788C204.491 174.687 203.753 173.397 203.149 171.921C202.546 170.444 202.244 168.915 202.244 167.333C202.244 165.938 202.47 164.603 202.921 163.325C203.448 161.843 204.263 160.366 205.364 158.896H206.498C205.789 160.114 205.32 160.984 205.092 161.506C204.734 162.314 204.453 163.158 204.248 164.037C203.996 165.133 203.87 166.234 203.87 167.342C203.87 170.16 204.746 172.976 206.498 175.788H205.364ZM209.372 175.788H208.238C209.99 172.976 210.866 170.16 210.866 167.342C210.866 166.24 210.74 165.147 210.488 164.063C210.289 163.185 210.011 162.341 209.653 161.532C209.425 161.005 208.953 160.126 208.238 158.896H209.372C210.474 160.366 211.288 161.843 211.815 163.325C212.267 164.603 212.492 165.938 212.492 167.333C212.492 168.915 212.188 170.444 211.578 171.921C210.975 173.397 210.239 174.687 209.372 175.788ZM78.1865 217.577V204.666H79.6279V205.879C79.9678 205.404 80.3516 205.05 80.7793 204.815C81.207 204.575 81.7256 204.455 82.335 204.455C83.1318 204.455 83.835 204.66 84.4443 205.07C85.0537 205.48 85.5137 206.061 85.8242 206.811C86.1348 207.555 86.29 208.372 86.29 209.263C86.29 210.218 86.1172 211.079 85.7715 211.847C85.4316 212.608 84.9336 213.194 84.2773 213.604C83.627 214.009 82.9414 214.211 82.2207 214.211C81.6934 214.211 81.2188 214.1 80.7969 213.877C80.3809 213.654 80.0381 213.373 79.7686 213.033V217.577H78.1865ZM79.6191 209.386C79.6191 210.587 79.8623 211.475 80.3486 212.049C80.835 212.623 81.4238 212.91 82.1152 212.91C82.8184 212.91 83.4189 212.614 83.917 212.022C84.4209 211.425 84.6729 210.502 84.6729 209.254C84.6729 208.064 84.4268 207.174 83.9346 206.582C83.4482 205.99 82.8652 205.694 82.1855 205.694C81.5117 205.694 80.9141 206.011 80.3926 206.644C79.877 207.271 79.6191 208.185 79.6191 209.386ZM88.1885 214V204.666H89.6123V206.081C89.9756 205.419 90.3096 204.982 90.6143 204.771C90.9248 204.561 91.2646 204.455 91.6338 204.455C92.167 204.455 92.709 204.625 93.2598 204.965L92.7148 206.433C92.3281 206.204 91.9414 206.09 91.5547 206.09C91.209 206.09 90.8984 206.195 90.623 206.406C90.3477 206.611 90.1514 206.898 90.0342 207.268C89.8584 207.83 89.7705 208.445 89.7705 209.113V214H88.1885ZM93.6113 209.333C93.6113 207.604 94.0918 206.324 95.0527 205.492C95.8555 204.801 96.834 204.455 97.9883 204.455C99.2715 204.455 100.32 204.877 101.135 205.721C101.949 206.559 102.356 207.719 102.356 209.201C102.356 210.402 102.175 211.349 101.812 212.04C101.454 212.726 100.93 213.259 100.238 213.64C99.5527 214.021 98.8027 214.211 97.9883 214.211C96.6816 214.211 95.624 213.792 94.8154 212.954C94.0127 212.116 93.6113 210.909 93.6113 209.333ZM95.2373 209.333C95.2373 210.528 95.498 211.425 96.0195 212.022C96.541 212.614 97.1973 212.91 97.9883 212.91C98.7734 212.91 99.4268 212.611 99.9482 212.014C100.47 211.416 100.73 210.505 100.73 209.28C100.73 208.126 100.467 207.253 99.9395 206.661C99.418 206.063 98.7676 205.765 97.9883 205.765C97.1973 205.765 96.541 206.061 96.0195 206.652C95.498 207.244 95.2373 208.138 95.2373 209.333ZM110.311 210.581L111.866 210.783C111.696 211.855 111.26 212.696 110.557 213.306C109.859 213.909 109.001 214.211 107.981 214.211C106.704 214.211 105.676 213.795 104.896 212.963C104.123 212.125 103.736 210.927 103.736 209.368C103.736 208.36 103.903 207.479 104.237 206.723C104.571 205.967 105.078 205.401 105.758 205.026C106.443 204.646 107.188 204.455 107.99 204.455C109.004 204.455 109.833 204.713 110.478 205.229C111.122 205.738 111.535 206.465 111.717 207.408L110.179 207.646C110.032 207.019 109.771 206.547 109.396 206.23C109.027 205.914 108.579 205.756 108.052 205.756C107.255 205.756 106.607 206.043 106.109 206.617C105.611 207.186 105.362 208.088 105.362 209.324C105.362 210.578 105.603 211.489 106.083 212.058C106.563 212.626 107.19 212.91 107.964 212.91C108.585 212.91 109.104 212.72 109.52 212.339C109.936 211.958 110.199 211.372 110.311 210.581ZM119.609 210.994L121.244 211.196C120.986 212.151 120.509 212.893 119.812 213.42C119.114 213.947 118.224 214.211 117.14 214.211C115.774 214.211 114.69 213.792 113.888 212.954C113.091 212.11 112.692 210.93 112.692 209.412C112.692 207.842 113.097 206.623 113.905 205.756C114.714 204.889 115.763 204.455 117.052 204.455C118.3 204.455 119.319 204.88 120.11 205.729C120.901 206.579 121.297 207.774 121.297 209.315C121.297 209.409 121.294 209.55 121.288 209.737H114.327C114.386 210.763 114.676 211.548 115.197 212.093C115.719 212.638 116.369 212.91 117.148 212.91C117.729 212.91 118.224 212.758 118.634 212.453C119.044 212.148 119.369 211.662 119.609 210.994ZM114.415 208.437H119.627C119.557 207.651 119.357 207.062 119.029 206.67C118.525 206.061 117.872 205.756 117.069 205.756C116.343 205.756 115.73 205.999 115.232 206.485C114.74 206.972 114.468 207.622 114.415 208.437ZM122.606 211.214L124.171 210.968C124.259 211.595 124.502 212.075 124.9 212.409C125.305 212.743 125.867 212.91 126.588 212.91C127.314 212.91 127.854 212.764 128.205 212.471C128.557 212.172 128.732 211.823 128.732 211.425C128.732 211.067 128.577 210.786 128.267 210.581C128.05 210.44 127.511 210.262 126.649 210.045C125.489 209.752 124.684 209.5 124.232 209.289C123.787 209.072 123.447 208.776 123.213 208.401C122.984 208.021 122.87 207.602 122.87 207.145C122.87 206.729 122.964 206.345 123.151 205.993C123.345 205.636 123.605 205.34 123.934 205.105C124.18 204.924 124.514 204.771 124.936 204.648C125.363 204.52 125.82 204.455 126.307 204.455C127.039 204.455 127.681 204.561 128.231 204.771C128.788 204.982 129.198 205.27 129.462 205.633C129.726 205.99 129.907 206.471 130.007 207.074L128.46 207.285C128.39 206.805 128.185 206.43 127.845 206.16C127.511 205.891 127.036 205.756 126.421 205.756C125.694 205.756 125.176 205.876 124.865 206.116C124.555 206.356 124.399 206.638 124.399 206.96C124.399 207.165 124.464 207.35 124.593 207.514C124.722 207.684 124.924 207.824 125.199 207.936C125.357 207.994 125.823 208.129 126.597 208.34C127.716 208.639 128.495 208.885 128.935 209.078C129.38 209.266 129.729 209.541 129.98 209.904C130.232 210.268 130.358 210.719 130.358 211.258C130.358 211.785 130.203 212.283 129.893 212.752C129.588 213.215 129.146 213.575 128.565 213.833C127.985 214.085 127.329 214.211 126.597 214.211C125.384 214.211 124.458 213.959 123.819 213.455C123.187 212.951 122.782 212.204 122.606 211.214ZM131.606 211.214L133.171 210.968C133.259 211.595 133.502 212.075 133.9 212.409C134.305 212.743 134.867 212.91 135.588 212.91C136.314 212.91 136.854 212.764 137.205 212.471C137.557 212.172 137.732 211.823 137.732 211.425C137.732 211.067 137.577 210.786 137.267 210.581C137.05 210.44 136.511 210.262 135.649 210.045C134.489 209.752 133.684 209.5 133.232 209.289C132.787 209.072 132.447 208.776 132.213 208.401C131.984 208.021 131.87 207.602 131.87 207.145C131.87 206.729 131.964 206.345 132.151 205.993C132.345 205.636 132.605 205.34 132.934 205.105C133.18 204.924 133.514 204.771 133.936 204.648C134.363 204.52 134.82 204.455 135.307 204.455C136.039 204.455 136.681 204.561 137.231 204.771C137.788 204.982 138.198 205.27 138.462 205.633C138.726 205.99 138.907 206.471 139.007 207.074L137.46 207.285C137.39 206.805 137.185 206.43 136.845 206.16C136.511 205.891 136.036 205.756 135.421 205.756C134.694 205.756 134.176 205.876 133.865 206.116C133.555 206.356 133.399 206.638 133.399 206.96C133.399 207.165 133.464 207.35 133.593 207.514C133.722 207.684 133.924 207.824 134.199 207.936C134.357 207.994 134.823 208.129 135.597 208.34C136.716 208.639 137.495 208.885 137.935 209.078C138.38 209.266 138.729 209.541 138.98 209.904C139.232 210.268 139.358 210.719 139.358 211.258C139.358 211.785 139.203 212.283 138.893 212.752C138.588 213.215 138.146 213.575 137.565 213.833C136.985 214.085 136.329 214.211 135.597 214.211C134.384 214.211 133.458 213.959 132.819 213.455C132.187 212.951 131.782 212.204 131.606 211.214ZM139.78 217.577V216.435H150.266V217.577H139.78ZM151.259 217.577V204.666H152.7V205.879C153.04 205.404 153.424 205.05 153.852 204.815C154.279 204.575 154.798 204.455 155.407 204.455C156.204 204.455 156.907 204.66 157.517 205.07C158.126 205.48 158.586 206.061 158.896 206.811C159.207 207.555 159.362 208.372 159.362 209.263C159.362 210.218 159.189 211.079 158.844 211.847C158.504 212.608 158.006 213.194 157.35 213.604C156.699 214.009 156.014 214.211 155.293 214.211C154.766 214.211 154.291 214.1 153.869 213.877C153.453 213.654 153.11 213.373 152.841 213.033V217.577H151.259ZM152.691 209.386C152.691 210.587 152.935 211.475 153.421 212.049C153.907 212.623 154.496 212.91 155.188 212.91C155.891 212.91 156.491 212.614 156.989 212.022C157.493 211.425 157.745 210.502 157.745 209.254C157.745 208.064 157.499 207.174 157.007 206.582C156.521 205.99 155.938 205.694 155.258 205.694C154.584 205.694 153.986 206.011 153.465 206.644C152.949 207.271 152.691 208.185 152.691 209.386ZM167.668 210.994L169.303 211.196C169.045 212.151 168.567 212.893 167.87 213.42C167.173 213.947 166.282 214.211 165.198 214.211C163.833 214.211 162.749 213.792 161.946 212.954C161.149 212.11 160.751 210.93 160.751 209.412C160.751 207.842 161.155 206.623 161.964 205.756C162.772 204.889 163.821 204.455 165.11 204.455C166.358 204.455 167.378 204.88 168.169 205.729C168.96 206.579 169.355 207.774 169.355 209.315C169.355 209.409 169.353 209.55 169.347 209.737H162.386C162.444 210.763 162.734 211.548 163.256 212.093C163.777 212.638 164.428 212.91 165.207 212.91C165.787 212.91 166.282 212.758 166.692 212.453C167.103 212.148 167.428 211.662 167.668 210.994ZM162.474 208.437H167.686C167.615 207.651 167.416 207.062 167.088 206.67C166.584 206.061 165.931 205.756 165.128 205.756C164.401 205.756 163.789 205.999 163.291 206.485C162.799 206.972 162.526 207.622 162.474 208.437ZM171.28 214V204.666H172.704V206.081C173.067 205.419 173.401 204.982 173.706 204.771C174.017 204.561 174.356 204.455 174.726 204.455C175.259 204.455 175.801 204.625 176.352 204.965L175.807 206.433C175.42 206.204 175.033 206.09 174.646 206.09C174.301 206.09 173.99 206.195 173.715 206.406C173.439 206.611 173.243 206.898 173.126 207.268C172.95 207.83 172.862 208.445 172.862 209.113V214H171.28ZM176.659 211.214L178.224 210.968C178.312 211.595 178.555 212.075 178.953 212.409C179.357 212.743 179.92 212.91 180.641 212.91C181.367 212.91 181.906 212.764 182.258 212.471C182.609 212.172 182.785 211.823 182.785 211.425C182.785 211.067 182.63 210.786 182.319 210.581C182.103 210.44 181.563 210.262 180.702 210.045C179.542 209.752 178.736 209.5 178.285 209.289C177.84 209.072 177.5 208.776 177.266 208.401C177.037 208.021 176.923 207.602 176.923 207.145C176.923 206.729 177.017 206.345 177.204 205.993C177.397 205.636 177.658 205.34 177.986 205.105C178.232 204.924 178.566 204.771 178.988 204.648C179.416 204.52 179.873 204.455 180.359 204.455C181.092 204.455 181.733 204.561 182.284 204.771C182.841 204.982 183.251 205.27 183.515 205.633C183.778 205.99 183.96 206.471 184.06 207.074L182.513 207.285C182.442 206.805 182.237 206.43 181.897 206.16C181.563 205.891 181.089 205.756 180.474 205.756C179.747 205.756 179.229 205.876 178.918 206.116C178.607 206.356 178.452 206.638 178.452 206.96C178.452 207.165 178.517 207.35 178.646 207.514C178.774 207.684 178.977 207.824 179.252 207.936C179.41 207.994 179.876 208.129 180.649 208.34C181.769 208.639 182.548 208.885 182.987 209.078C183.433 209.266 183.781 209.541 184.033 209.904C184.285 210.268 184.411 210.719 184.411 211.258C184.411 211.785 184.256 212.283 183.945 212.752C183.641 213.215 183.198 213.575 182.618 213.833C182.038 214.085 181.382 214.211 180.649 214.211C179.437 214.211 178.511 213.959 177.872 213.455C177.239 212.951 176.835 212.204 176.659 211.214ZM185.703 209.333C185.703 207.604 186.184 206.324 187.145 205.492C187.947 204.801 188.926 204.455 190.08 204.455C191.363 204.455 192.412 204.877 193.227 205.721C194.041 206.559 194.448 207.719 194.448 209.201C194.448 210.402 194.267 211.349 193.903 212.04C193.546 212.726 193.021 213.259 192.33 213.64C191.645 214.021 190.895 214.211 190.08 214.211C188.773 214.211 187.716 213.792 186.907 212.954C186.104 212.116 185.703 210.909 185.703 209.333ZM187.329 209.333C187.329 210.528 187.59 211.425 188.111 212.022C188.633 212.614 189.289 212.91 190.08 212.91C190.865 212.91 191.519 212.611 192.04 212.014C192.562 211.416 192.822 210.505 192.822 209.28C192.822 208.126 192.559 207.253 192.031 206.661C191.51 206.063 190.859 205.765 190.08 205.765C189.289 205.765 188.633 206.061 188.111 206.652C187.59 207.244 187.329 208.138 187.329 209.333ZM196.312 214V204.666H197.735V205.993C198.421 204.968 199.411 204.455 200.706 204.455C201.269 204.455 201.784 204.558 202.253 204.763C202.728 204.962 203.082 205.226 203.316 205.554C203.551 205.882 203.715 206.271 203.809 206.723C203.867 207.016 203.896 207.528 203.896 208.261V214H202.314V208.322C202.314 207.678 202.253 207.197 202.13 206.881C202.007 206.559 201.787 206.304 201.471 206.116C201.16 205.923 200.794 205.826 200.372 205.826C199.698 205.826 199.115 206.04 198.623 206.468C198.137 206.896 197.894 207.707 197.894 208.902V214H196.312ZM212.422 212.849C211.836 213.347 211.271 213.698 210.726 213.903C210.187 214.108 209.606 214.211 208.985 214.211C207.96 214.211 207.172 213.962 206.621 213.464C206.07 212.96 205.795 212.318 205.795 211.539C205.795 211.082 205.897 210.666 206.103 210.291C206.313 209.91 206.586 209.605 206.92 209.377C207.26 209.148 207.641 208.976 208.062 208.858C208.373 208.776 208.842 208.697 209.469 208.621C210.746 208.469 211.687 208.287 212.29 208.076C212.296 207.859 212.299 207.722 212.299 207.663C212.299 207.019 212.149 206.564 211.851 206.301C211.446 205.943 210.846 205.765 210.049 205.765C209.305 205.765 208.754 205.896 208.396 206.16C208.045 206.418 207.784 206.878 207.614 207.54L206.067 207.329C206.208 206.667 206.439 206.134 206.762 205.729C207.084 205.319 207.55 205.006 208.159 204.789C208.769 204.566 209.475 204.455 210.277 204.455C211.074 204.455 211.722 204.549 212.22 204.736C212.718 204.924 213.084 205.161 213.318 205.448C213.553 205.729 213.717 206.087 213.811 206.521C213.863 206.79 213.89 207.276 213.89 207.979V210.089C213.89 211.56 213.922 212.491 213.986 212.884C214.057 213.271 214.191 213.643 214.391 214H212.738C212.574 213.672 212.469 213.288 212.422 212.849ZM212.29 209.315C211.716 209.55 210.854 209.749 209.706 209.913C209.056 210.007 208.596 210.112 208.326 210.229C208.057 210.347 207.849 210.52 207.702 210.748C207.556 210.971 207.482 211.22 207.482 211.495C207.482 211.917 207.641 212.269 207.957 212.55C208.279 212.831 208.748 212.972 209.363 212.972C209.973 212.972 210.515 212.84 210.989 212.576C211.464 212.307 211.812 211.94 212.035 211.478C212.205 211.12 212.29 210.593 212.29 209.896V209.315ZM216.315 214V201.115H217.897V214H216.315ZM218.899 217.577V216.435H229.385V217.577H218.899ZM236.434 214V212.822C235.842 213.748 234.972 214.211 233.823 214.211C233.079 214.211 232.394 214.006 231.767 213.596C231.146 213.186 230.662 212.614 230.316 211.882C229.977 211.144 229.807 210.297 229.807 209.342C229.807 208.41 229.962 207.566 230.272 206.811C230.583 206.049 231.049 205.466 231.67 205.062C232.291 204.657 232.985 204.455 233.753 204.455C234.315 204.455 234.816 204.575 235.256 204.815C235.695 205.05 236.053 205.357 236.328 205.738V201.115H237.901V214H236.434ZM231.433 209.342C231.433 210.537 231.685 211.431 232.188 212.022C232.692 212.614 233.287 212.91 233.973 212.91C234.664 212.91 235.25 212.629 235.73 212.066C236.217 211.498 236.46 210.634 236.46 209.474C236.46 208.196 236.214 207.259 235.722 206.661C235.229 206.063 234.623 205.765 233.902 205.765C233.199 205.765 232.61 206.052 232.136 206.626C231.667 207.2 231.433 208.105 231.433 209.342ZM246.488 212.849C245.902 213.347 245.337 213.698 244.792 213.903C244.253 214.108 243.673 214.211 243.052 214.211C242.026 214.211 241.238 213.962 240.688 213.464C240.137 212.96 239.861 212.318 239.861 211.539C239.861 211.082 239.964 210.666 240.169 210.291C240.38 209.91 240.652 209.605 240.986 209.377C241.326 209.148 241.707 208.976 242.129 208.858C242.439 208.776 242.908 208.697 243.535 208.621C244.812 208.469 245.753 208.287 246.356 208.076C246.362 207.859 246.365 207.722 246.365 207.663C246.365 207.019 246.216 206.564 245.917 206.301C245.513 205.943 244.912 205.765 244.115 205.765C243.371 205.765 242.82 205.896 242.463 206.16C242.111 206.418 241.851 206.878 241.681 207.54L240.134 207.329C240.274 206.667 240.506 206.134 240.828 205.729C241.15 205.319 241.616 205.006 242.226 204.789C242.835 204.566 243.541 204.455 244.344 204.455C245.141 204.455 245.788 204.549 246.286 204.736C246.784 204.924 247.15 205.161 247.385 205.448C247.619 205.729 247.783 206.087 247.877 206.521C247.93 206.79 247.956 207.276 247.956 207.979V210.089C247.956 211.56 247.988 212.491 248.053 212.884C248.123 213.271 248.258 213.643 248.457 214H246.805C246.641 213.672 246.535 213.288 246.488 212.849ZM246.356 209.315C245.782 209.55 244.921 209.749 243.772 209.913C243.122 210.007 242.662 210.112 242.393 210.229C242.123 210.347 241.915 210.52 241.769 210.748C241.622 210.971 241.549 211.22 241.549 211.495C241.549 211.917 241.707 212.269 242.023 212.55C242.346 212.831 242.814 212.972 243.43 212.972C244.039 212.972 244.581 212.84 245.056 212.576C245.53 212.307 245.879 211.94 246.102 211.478C246.271 211.12 246.356 210.593 246.356 209.896V209.315ZM253.871 212.585L254.1 213.982C253.654 214.076 253.256 214.123 252.904 214.123C252.33 214.123 251.885 214.032 251.568 213.851C251.252 213.669 251.029 213.432 250.9 213.139C250.771 212.84 250.707 212.216 250.707 211.267V205.896H249.547V204.666H250.707V202.354L252.28 201.405V204.666H253.871V205.896H252.28V211.354C252.28 211.806 252.307 212.096 252.359 212.225C252.418 212.354 252.509 212.456 252.632 212.532C252.761 212.608 252.942 212.646 253.177 212.646C253.353 212.646 253.584 212.626 253.871 212.585ZM261.518 212.849C260.932 213.347 260.366 213.698 259.821 213.903C259.282 214.108 258.702 214.211 258.081 214.211C257.056 214.211 256.268 213.962 255.717 213.464C255.166 212.96 254.891 212.318 254.891 211.539C254.891 211.082 254.993 210.666 255.198 210.291C255.409 209.91 255.682 209.605 256.016 209.377C256.355 209.148 256.736 208.976 257.158 208.858C257.469 208.776 257.938 208.697 258.564 208.621C259.842 208.469 260.782 208.287 261.386 208.076C261.392 207.859 261.395 207.722 261.395 207.663C261.395 207.019 261.245 206.564 260.946 206.301C260.542 205.943 259.941 205.765 259.145 205.765C258.4 205.765 257.85 205.896 257.492 206.16C257.141 206.418 256.88 206.878 256.71 207.54L255.163 207.329C255.304 206.667 255.535 206.134 255.857 205.729C256.18 205.319 256.646 205.006 257.255 204.789C257.864 204.566 258.57 204.455 259.373 204.455C260.17 204.455 260.817 204.549 261.315 204.736C261.813 204.924 262.18 205.161 262.414 205.448C262.648 205.729 262.812 206.087 262.906 206.521C262.959 206.79 262.985 207.276 262.985 207.979V210.089C262.985 211.56 263.018 212.491 263.082 212.884C263.152 213.271 263.287 213.643 263.486 214H261.834C261.67 213.672 261.564 213.288 261.518 212.849ZM261.386 209.315C260.812 209.55 259.95 209.749 258.802 209.913C258.151 210.007 257.691 210.112 257.422 210.229C257.152 210.347 256.944 210.52 256.798 210.748C256.651 210.971 256.578 211.22 256.578 211.495C256.578 211.917 256.736 212.269 257.053 212.55C257.375 212.831 257.844 212.972 258.459 212.972C259.068 212.972 259.61 212.84 260.085 212.576C260.56 212.307 260.908 211.94 261.131 211.478C261.301 211.12 261.386 210.593 261.386 209.896V209.315ZM268.47 217.788C267.597 216.687 266.858 215.397 266.255 213.921C265.651 212.444 265.35 210.915 265.35 209.333C265.35 207.938 265.575 206.603 266.026 205.325C266.554 203.843 267.368 202.366 268.47 200.896H269.604C268.895 202.114 268.426 202.984 268.197 203.506C267.84 204.314 267.559 205.158 267.354 206.037C267.102 207.133 266.976 208.234 266.976 209.342C266.976 212.16 267.852 214.976 269.604 217.788H268.47ZM272.478 217.788H271.344C273.096 214.976 273.972 212.16 273.972 209.342C273.972 208.24 273.846 207.147 273.594 206.063C273.395 205.185 273.116 204.341 272.759 203.532C272.53 203.005 272.059 202.126 271.344 200.896H272.478C273.579 202.366 274.394 203.843 274.921 205.325C275.372 206.603 275.598 207.938 275.598 209.333C275.598 210.915 275.293 212.444 274.684 213.921C274.08 215.397 273.345 216.687 272.478 217.788ZM78.1865 259.577V246.666H79.6279V247.879C79.9678 247.404 80.3516 247.05 80.7793 246.815C81.207 246.575 81.7256 246.455 82.335 246.455C83.1318 246.455 83.835 246.66 84.4443 247.07C85.0537 247.48 85.5137 248.061 85.8242 248.811C86.1348 249.555 86.29 250.372 86.29 251.263C86.29 252.218 86.1172 253.079 85.7715 253.847C85.4316 254.608 84.9336 255.194 84.2773 255.604C83.627 256.009 82.9414 256.211 82.2207 256.211C81.6934 256.211 81.2188 256.1 80.7969 255.877C80.3809 255.654 80.0381 255.373 79.7686 255.033V259.577H78.1865ZM79.6191 251.386C79.6191 252.587 79.8623 253.475 80.3486 254.049C80.835 254.623 81.4238 254.91 82.1152 254.91C82.8184 254.91 83.4189 254.614 83.917 254.022C84.4209 253.425 84.6729 252.502 84.6729 251.254C84.6729 250.064 84.4268 249.174 83.9346 248.582C83.4482 247.99 82.8652 247.694 82.1855 247.694C81.5117 247.694 80.9141 248.011 80.3926 248.644C79.877 249.271 79.6191 250.185 79.6191 251.386ZM88.1885 256V246.666H89.6123V248.081C89.9756 247.419 90.3096 246.982 90.6143 246.771C90.9248 246.561 91.2646 246.455 91.6338 246.455C92.167 246.455 92.709 246.625 93.2598 246.965L92.7148 248.433C92.3281 248.204 91.9414 248.09 91.5547 248.09C91.209 248.09 90.8984 248.195 90.623 248.406C90.3477 248.611 90.1514 248.898 90.0342 249.268C89.8584 249.83 89.7705 250.445 89.7705 251.113V256H88.1885ZM94.209 244.935V243.115H95.791V244.935H94.209ZM94.209 256V246.666H95.791V256H94.209ZM98.208 256V246.666H99.6318V247.993C100.317 246.968 101.308 246.455 102.603 246.455C103.165 246.455 103.681 246.558 104.149 246.763C104.624 246.962 104.979 247.226 105.213 247.554C105.447 247.882 105.611 248.271 105.705 248.723C105.764 249.016 105.793 249.528 105.793 250.261V256H104.211V250.322C104.211 249.678 104.149 249.197 104.026 248.881C103.903 248.559 103.684 248.304 103.367 248.116C103.057 247.923 102.69 247.826 102.269 247.826C101.595 247.826 101.012 248.04 100.52 248.468C100.033 248.896 99.79 249.707 99.79 250.902V256H98.208ZM111.682 254.585L111.91 255.982C111.465 256.076 111.066 256.123 110.715 256.123C110.141 256.123 109.695 256.032 109.379 255.851C109.062 255.669 108.84 255.432 108.711 255.139C108.582 254.84 108.518 254.216 108.518 253.267V247.896H107.357V246.666H108.518V244.354L110.091 243.405V246.666H111.682V247.896H110.091V253.354C110.091 253.806 110.117 254.096 110.17 254.225C110.229 254.354 110.319 254.456 110.442 254.532C110.571 254.608 110.753 254.646 110.987 254.646C111.163 254.646 111.395 254.626 111.682 254.585ZM116.261 259.788C115.388 258.687 114.649 257.397 114.046 255.921C113.442 254.444 113.141 252.915 113.141 251.333C113.141 249.938 113.366 248.603 113.817 247.325C114.345 245.843 115.159 244.366 116.261 242.896H117.395C116.686 244.114 116.217 244.984 115.988 245.506C115.631 246.314 115.35 247.158 115.145 248.037C114.893 249.133 114.767 250.234 114.767 251.342C114.767 254.16 115.643 256.976 117.395 259.788H116.261ZM120.471 245.277V247.114H118.774V245.664C118.774 244.879 118.868 244.311 119.056 243.959C119.302 243.49 119.691 243.136 120.225 242.896L120.611 243.511C120.289 243.646 120.052 243.848 119.899 244.117C119.747 244.381 119.662 244.768 119.645 245.277H120.471ZM123.195 245.277V247.114H121.499V245.664C121.499 244.879 121.593 244.311 121.78 243.959C122.026 243.49 122.416 243.136 122.949 242.896L123.336 243.511C123.014 243.646 122.776 243.848 122.624 244.117C122.472 244.381 122.387 244.768 122.369 245.277H123.195ZM128.706 256V244.636H124.461V243.115H134.674V244.636H130.411V256H128.706ZM136.229 256V243.115H137.812V247.738C138.55 246.883 139.481 246.455 140.606 246.455C141.298 246.455 141.898 246.593 142.408 246.868C142.918 247.138 143.281 247.513 143.498 247.993C143.721 248.474 143.832 249.171 143.832 250.085V256H142.25V250.085C142.25 249.294 142.077 248.72 141.731 248.362C141.392 247.999 140.908 247.817 140.281 247.817C139.812 247.817 139.37 247.94 138.954 248.187C138.544 248.427 138.251 248.755 138.075 249.171C137.899 249.587 137.812 250.161 137.812 250.894V256H136.229ZM146.258 244.935V243.115H147.84V244.935H146.258ZM146.258 256V246.666H147.84V256H146.258ZM149.624 253.214L151.188 252.968C151.276 253.595 151.52 254.075 151.918 254.409C152.322 254.743 152.885 254.91 153.605 254.91C154.332 254.91 154.871 254.764 155.223 254.471C155.574 254.172 155.75 253.823 155.75 253.425C155.75 253.067 155.595 252.786 155.284 252.581C155.067 252.44 154.528 252.262 153.667 252.045C152.507 251.752 151.701 251.5 151.25 251.289C150.805 251.072 150.465 250.776 150.23 250.401C150.002 250.021 149.888 249.602 149.888 249.145C149.888 248.729 149.981 248.345 150.169 247.993C150.362 247.636 150.623 247.34 150.951 247.105C151.197 246.924 151.531 246.771 151.953 246.648C152.381 246.52 152.838 246.455 153.324 246.455C154.057 246.455 154.698 246.561 155.249 246.771C155.806 246.982 156.216 247.27 156.479 247.633C156.743 247.99 156.925 248.471 157.024 249.074L155.478 249.285C155.407 248.805 155.202 248.43 154.862 248.16C154.528 247.891 154.054 247.756 153.438 247.756C152.712 247.756 152.193 247.876 151.883 248.116C151.572 248.356 151.417 248.638 151.417 248.96C151.417 249.165 151.481 249.35 151.61 249.514C151.739 249.684 151.941 249.824 152.217 249.936C152.375 249.994 152.841 250.129 153.614 250.34C154.733 250.639 155.513 250.885 155.952 251.078C156.397 251.266 156.746 251.541 156.998 251.904C157.25 252.268 157.376 252.719 157.376 253.258C157.376 253.785 157.221 254.283 156.91 254.752C156.605 255.215 156.163 255.575 155.583 255.833C155.003 256.085 154.347 256.211 153.614 256.211C152.401 256.211 151.476 255.959 150.837 255.455C150.204 254.951 149.8 254.204 149.624 253.214ZM164.275 244.935V243.115H165.857V244.935H164.275ZM164.275 256V246.666H165.857V256H164.275ZM167.642 253.214L169.206 252.968C169.294 253.595 169.537 254.075 169.936 254.409C170.34 254.743 170.902 254.91 171.623 254.91C172.35 254.91 172.889 254.764 173.24 254.471C173.592 254.172 173.768 253.823 173.768 253.425C173.768 253.067 173.612 252.786 173.302 252.581C173.085 252.44 172.546 252.262 171.685 252.045C170.524 251.752 169.719 251.5 169.268 251.289C168.822 251.072 168.482 250.776 168.248 250.401C168.02 250.021 167.905 249.602 167.905 249.145C167.905 248.729 167.999 248.345 168.187 247.993C168.38 247.636 168.641 247.34 168.969 247.105C169.215 246.924 169.549 246.771 169.971 246.648C170.398 246.52 170.855 246.455 171.342 246.455C172.074 246.455 172.716 246.561 173.267 246.771C173.823 246.982 174.233 247.27 174.497 247.633C174.761 247.99 174.942 248.471 175.042 249.074L173.495 249.285C173.425 248.805 173.22 248.43 172.88 248.16C172.546 247.891 172.071 247.756 171.456 247.756C170.729 247.756 170.211 247.876 169.9 248.116C169.59 248.356 169.435 248.638 169.435 248.96C169.435 249.165 169.499 249.35 169.628 249.514C169.757 249.684 169.959 249.824 170.234 249.936C170.393 249.994 170.858 250.129 171.632 250.34C172.751 250.639 173.53 250.885 173.97 251.078C174.415 251.266 174.764 251.541 175.016 251.904C175.268 252.268 175.394 252.719 175.394 253.258C175.394 253.785 175.238 254.283 174.928 254.752C174.623 255.215 174.181 255.575 173.601 255.833C173.021 256.085 172.364 256.211 171.632 256.211C170.419 256.211 169.493 255.959 168.854 255.455C168.222 254.951 167.817 254.204 167.642 253.214ZM188.34 256V254.822C187.748 255.748 186.878 256.211 185.729 256.211C184.985 256.211 184.3 256.006 183.673 255.596C183.052 255.186 182.568 254.614 182.223 253.882C181.883 253.144 181.713 252.297 181.713 251.342C181.713 250.41 181.868 249.566 182.179 248.811C182.489 248.049 182.955 247.466 183.576 247.062C184.197 246.657 184.892 246.455 185.659 246.455C186.222 246.455 186.723 246.575 187.162 246.815C187.602 247.05 187.959 247.357 188.234 247.738V243.115H189.808V256H188.34ZM183.339 251.342C183.339 252.537 183.591 253.431 184.095 254.022C184.599 254.614 185.193 254.91 185.879 254.91C186.57 254.91 187.156 254.629 187.637 254.066C188.123 253.498 188.366 252.634 188.366 251.474C188.366 250.196 188.12 249.259 187.628 248.661C187.136 248.063 186.529 247.765 185.809 247.765C185.105 247.765 184.517 248.052 184.042 248.626C183.573 249.2 183.339 250.105 183.339 251.342ZM198.693 252.994L200.328 253.196C200.07 254.151 199.593 254.893 198.896 255.42C198.198 255.947 197.308 256.211 196.224 256.211C194.858 256.211 193.774 255.792 192.972 254.954C192.175 254.11 191.776 252.93 191.776 251.412C191.776 249.842 192.181 248.623 192.989 247.756C193.798 246.889 194.847 246.455 196.136 246.455C197.384 246.455 198.403 246.88 199.194 247.729C199.985 248.579 200.381 249.774 200.381 251.315C200.381 251.409 200.378 251.55 200.372 251.737H193.411C193.47 252.763 193.76 253.548 194.281 254.093C194.803 254.638 195.453 254.91 196.232 254.91C196.812 254.91 197.308 254.758 197.718 254.453C198.128 254.148 198.453 253.662 198.693 252.994ZM193.499 250.437H198.711C198.641 249.651 198.441 249.062 198.113 248.67C197.609 248.061 196.956 247.756 196.153 247.756C195.427 247.756 194.814 247.999 194.316 248.485C193.824 248.972 193.552 249.622 193.499 250.437ZM202.701 256V247.896H201.304V246.666H202.701V245.673C202.701 245.046 202.757 244.58 202.868 244.275C203.021 243.865 203.287 243.534 203.668 243.282C204.055 243.024 204.594 242.896 205.285 242.896C205.73 242.896 206.223 242.948 206.762 243.054L206.524 244.434C206.196 244.375 205.886 244.346 205.593 244.346C205.112 244.346 204.772 244.448 204.573 244.653C204.374 244.858 204.274 245.242 204.274 245.805V246.666H206.094V247.896H204.274V256H202.701ZM207.342 244.935V243.115H208.924V244.935H207.342ZM207.342 256V246.666H208.924V256H207.342ZM211.341 256V246.666H212.765V247.993C213.45 246.968 214.44 246.455 215.735 246.455C216.298 246.455 216.813 246.558 217.282 246.763C217.757 246.962 218.111 247.226 218.346 247.554C218.58 247.882 218.744 248.271 218.838 248.723C218.896 249.016 218.926 249.528 218.926 250.261V256H217.344V250.322C217.344 249.678 217.282 249.197 217.159 248.881C217.036 248.559 216.816 248.304 216.5 248.116C216.189 247.923 215.823 247.826 215.401 247.826C214.728 247.826 214.145 248.04 213.652 248.468C213.166 248.896 212.923 249.707 212.923 250.902V256H211.341ZM221.369 244.935V243.115H222.951V244.935H221.369ZM221.369 256V246.666H222.951V256H221.369ZM228.822 254.585L229.051 255.982C228.605 256.076 228.207 256.123 227.855 256.123C227.281 256.123 226.836 256.032 226.52 255.851C226.203 255.669 225.98 255.432 225.852 255.139C225.723 254.84 225.658 254.216 225.658 253.267V247.896H224.498V246.666H225.658V244.354L227.231 243.405V246.666H228.822V247.896H227.231V253.354C227.231 253.806 227.258 254.096 227.311 254.225C227.369 254.354 227.46 254.456 227.583 254.532C227.712 254.608 227.894 254.646 228.128 254.646C228.304 254.646 228.535 254.626 228.822 254.585ZM236.768 252.994L238.402 253.196C238.145 254.151 237.667 254.893 236.97 255.42C236.272 255.947 235.382 256.211 234.298 256.211C232.933 256.211 231.849 255.792 231.046 254.954C230.249 254.11 229.851 252.93 229.851 251.412C229.851 249.842 230.255 248.623 231.063 247.756C231.872 246.889 232.921 246.455 234.21 246.455C235.458 246.455 236.478 246.88 237.269 247.729C238.06 248.579 238.455 249.774 238.455 251.315C238.455 251.409 238.452 251.55 238.446 251.737H231.485C231.544 252.763 231.834 253.548 232.355 254.093C232.877 254.638 233.527 254.91 234.307 254.91C234.887 254.91 235.382 254.758 235.792 254.453C236.202 254.148 236.527 253.662 236.768 252.994ZM231.573 250.437H236.785C236.715 249.651 236.516 249.062 236.188 248.67C235.684 248.061 235.03 247.756 234.228 247.756C233.501 247.756 232.889 247.999 232.391 248.485C231.898 248.972 231.626 249.622 231.573 250.437ZM240.362 256V243.115H241.944V256H240.362ZM244.335 259.595L244.159 258.109C244.505 258.203 244.807 258.25 245.064 258.25C245.416 258.25 245.697 258.191 245.908 258.074C246.119 257.957 246.292 257.793 246.427 257.582C246.526 257.424 246.688 257.031 246.91 256.404C246.939 256.316 246.986 256.188 247.051 256.018L243.509 246.666H245.214L247.156 252.071C247.408 252.757 247.634 253.478 247.833 254.233C248.015 253.507 248.231 252.798 248.483 252.106L250.479 246.666H252.061L248.51 256.158C248.129 257.184 247.833 257.89 247.622 258.276C247.341 258.798 247.019 259.179 246.655 259.419C246.292 259.665 245.858 259.788 245.354 259.788C245.05 259.788 244.71 259.724 244.335 259.595ZM264.506 254.849C263.92 255.347 263.354 255.698 262.81 255.903C262.271 256.108 261.69 256.211 261.069 256.211C260.044 256.211 259.256 255.962 258.705 255.464C258.154 254.96 257.879 254.318 257.879 253.539C257.879 253.082 257.981 252.666 258.187 252.291C258.397 251.91 258.67 251.605 259.004 251.377C259.344 251.148 259.725 250.976 260.146 250.858C260.457 250.776 260.926 250.697 261.553 250.621C262.83 250.469 263.771 250.287 264.374 250.076C264.38 249.859 264.383 249.722 264.383 249.663C264.383 249.019 264.233 248.564 263.935 248.301C263.53 247.943 262.93 247.765 262.133 247.765C261.389 247.765 260.838 247.896 260.48 248.16C260.129 248.418 259.868 248.878 259.698 249.54L258.151 249.329C258.292 248.667 258.523 248.134 258.846 247.729C259.168 247.319 259.634 247.006 260.243 246.789C260.853 246.566 261.559 246.455 262.361 246.455C263.158 246.455 263.806 246.549 264.304 246.736C264.802 246.924 265.168 247.161 265.402 247.448C265.637 247.729 265.801 248.087 265.895 248.521C265.947 248.79 265.974 249.276 265.974 249.979V252.089C265.974 253.56 266.006 254.491 266.07 254.884C266.141 255.271 266.275 255.643 266.475 256H264.822C264.658 255.672 264.553 255.288 264.506 254.849ZM264.374 251.315C263.8 251.55 262.938 251.749 261.79 251.913C261.14 252.007 260.68 252.112 260.41 252.229C260.141 252.347 259.933 252.52 259.786 252.748C259.64 252.971 259.566 253.22 259.566 253.495C259.566 253.917 259.725 254.269 260.041 254.55C260.363 254.831 260.832 254.972 261.447 254.972C262.057 254.972 262.599 254.84 263.073 254.576C263.548 254.307 263.896 253.94 264.119 253.478C264.289 253.12 264.374 252.593 264.374 251.896V251.315ZM272.812 253.214L274.376 252.968C274.464 253.595 274.707 254.075 275.105 254.409C275.51 254.743 276.072 254.91 276.793 254.91C277.52 254.91 278.059 254.764 278.41 254.471C278.762 254.172 278.938 253.823 278.938 253.425C278.938 253.067 278.782 252.786 278.472 252.581C278.255 252.44 277.716 252.262 276.854 252.045C275.694 251.752 274.889 251.5 274.438 251.289C273.992 251.072 273.652 250.776 273.418 250.401C273.189 250.021 273.075 249.602 273.075 249.145C273.075 248.729 273.169 248.345 273.356 247.993C273.55 247.636 273.811 247.34 274.139 247.105C274.385 246.924 274.719 246.771 275.141 246.648C275.568 246.52 276.025 246.455 276.512 246.455C277.244 246.455 277.886 246.561 278.437 246.771C278.993 246.982 279.403 247.27 279.667 247.633C279.931 247.99 280.112 248.471 280.212 249.074L278.665 249.285C278.595 248.805 278.39 248.43 278.05 248.16C277.716 247.891 277.241 247.756 276.626 247.756C275.899 247.756 275.381 247.876 275.07 248.116C274.76 248.356 274.604 248.638 274.604 248.96C274.604 249.165 274.669 249.35 274.798 249.514C274.927 249.684 275.129 249.824 275.404 249.936C275.562 249.994 276.028 250.129 276.802 250.34C277.921 250.639 278.7 250.885 279.14 251.078C279.585 251.266 279.934 251.541 280.186 251.904C280.438 252.268 280.563 252.719 280.563 253.258C280.563 253.785 280.408 254.283 280.098 254.752C279.793 255.215 279.351 255.575 278.771 255.833C278.19 256.085 277.534 256.211 276.802 256.211C275.589 256.211 274.663 255.959 274.024 255.455C273.392 254.951 272.987 254.204 272.812 253.214ZM288.535 254.849C287.949 255.347 287.384 255.698 286.839 255.903C286.3 256.108 285.72 256.211 285.099 256.211C284.073 256.211 283.285 255.962 282.734 255.464C282.184 254.96 281.908 254.318 281.908 253.539C281.908 253.082 282.011 252.666 282.216 252.291C282.427 251.91 282.699 251.605 283.033 251.377C283.373 251.148 283.754 250.976 284.176 250.858C284.486 250.776 284.955 250.697 285.582 250.621C286.859 250.469 287.8 250.287 288.403 250.076C288.409 249.859 288.412 249.722 288.412 249.663C288.412 249.019 288.263 248.564 287.964 248.301C287.56 247.943 286.959 247.765 286.162 247.765C285.418 247.765 284.867 247.896 284.51 248.16C284.158 248.418 283.897 248.878 283.728 249.54L282.181 249.329C282.321 248.667 282.553 248.134 282.875 247.729C283.197 247.319 283.663 247.006 284.272 246.789C284.882 246.566 285.588 246.455 286.391 246.455C287.188 246.455 287.835 246.549 288.333 246.736C288.831 246.924 289.197 247.161 289.432 247.448C289.666 247.729 289.83 248.087 289.924 248.521C289.977 248.79 290.003 249.276 290.003 249.979V252.089C290.003 253.56 290.035 254.491 290.1 254.884C290.17 255.271 290.305 255.643 290.504 256H288.852C288.688 255.672 288.582 255.288 288.535 254.849ZM288.403 251.315C287.829 251.55 286.968 251.749 285.819 251.913C285.169 252.007 284.709 252.112 284.439 252.229C284.17 252.347 283.962 252.52 283.815 252.748C283.669 252.971 283.596 253.22 283.596 253.495C283.596 253.917 283.754 254.269 284.07 254.55C284.393 254.831 284.861 254.972 285.477 254.972C286.086 254.972 286.628 254.84 287.103 254.576C287.577 254.307 287.926 253.94 288.148 253.478C288.318 253.12 288.403 252.593 288.403 251.896V251.315ZM292.842 256V247.896H291.444V246.666H292.842V245.673C292.842 245.046 292.897 244.58 293.009 244.275C293.161 243.865 293.428 243.534 293.809 243.282C294.195 243.024 294.734 242.896 295.426 242.896C295.871 242.896 296.363 242.948 296.902 243.054L296.665 244.434C296.337 244.375 296.026 244.346 295.733 244.346C295.253 244.346 294.913 244.448 294.714 244.653C294.515 244.858 294.415 245.242 294.415 245.805V246.666H296.234V247.896H294.415V256H292.842ZM303.863 252.994L305.498 253.196C305.24 254.151 304.763 254.893 304.065 255.42C303.368 255.947 302.478 256.211 301.394 256.211C300.028 256.211 298.944 255.792 298.142 254.954C297.345 254.11 296.946 252.93 296.946 251.412C296.946 249.842 297.351 248.623 298.159 247.756C298.968 246.889 300.017 246.455 301.306 246.455C302.554 246.455 303.573 246.88 304.364 247.729C305.155 248.579 305.551 249.774 305.551 251.315C305.551 251.409 305.548 251.55 305.542 251.737H298.581C298.64 252.763 298.93 253.548 299.451 254.093C299.973 254.638 300.623 254.91 301.402 254.91C301.982 254.91 302.478 254.758 302.888 254.453C303.298 254.148 303.623 253.662 303.863 252.994ZM298.669 250.437H303.881C303.811 249.651 303.611 249.062 303.283 248.67C302.779 248.061 302.126 247.756 301.323 247.756C300.597 247.756 299.984 247.999 299.486 248.485C298.994 248.972 298.722 249.622 298.669 250.437ZM312.503 259.577V246.666H313.944V247.879C314.284 247.404 314.668 247.05 315.096 246.815C315.523 246.575 316.042 246.455 316.651 246.455C317.448 246.455 318.151 246.66 318.761 247.07C319.37 247.48 319.83 248.061 320.141 248.811C320.451 249.555 320.606 250.372 320.606 251.263C320.606 252.218 320.434 253.079 320.088 253.847C319.748 254.608 319.25 255.194 318.594 255.604C317.943 256.009 317.258 256.211 316.537 256.211C316.01 256.211 315.535 256.1 315.113 255.877C314.697 255.654 314.354 255.373 314.085 255.033V259.577H312.503ZM313.936 251.386C313.936 252.587 314.179 253.475 314.665 254.049C315.151 254.623 315.74 254.91 316.432 254.91C317.135 254.91 317.735 254.614 318.233 254.022C318.737 253.425 318.989 252.502 318.989 251.254C318.989 250.064 318.743 249.174 318.251 248.582C317.765 247.99 317.182 247.694 316.502 247.694C315.828 247.694 315.23 248.011 314.709 248.644C314.193 249.271 313.936 250.185 313.936 251.386ZM322.505 256V246.666H323.929V248.081C324.292 247.419 324.626 246.982 324.931 246.771C325.241 246.561 325.581 246.455 325.95 246.455C326.483 246.455 327.025 246.625 327.576 246.965L327.031 248.433C326.645 248.204 326.258 248.09 325.871 248.09C325.525 248.09 325.215 248.195 324.939 248.406C324.664 248.611 324.468 248.898 324.351 249.268C324.175 249.83 324.087 250.445 324.087 251.113V256H322.505ZM327.928 251.333C327.928 249.604 328.408 248.324 329.369 247.492C330.172 246.801 331.15 246.455 332.305 246.455C333.588 246.455 334.637 246.877 335.451 247.721C336.266 248.559 336.673 249.719 336.673 251.201C336.673 252.402 336.491 253.349 336.128 254.04C335.771 254.726 335.246 255.259 334.555 255.64C333.869 256.021 333.119 256.211 332.305 256.211C330.998 256.211 329.94 255.792 329.132 254.954C328.329 254.116 327.928 252.909 327.928 251.333ZM329.554 251.333C329.554 252.528 329.814 253.425 330.336 254.022C330.857 254.614 331.514 254.91 332.305 254.91C333.09 254.91 333.743 254.611 334.265 254.014C334.786 253.416 335.047 252.505 335.047 251.28C335.047 250.126 334.783 249.253 334.256 248.661C333.734 248.063 333.084 247.765 332.305 247.765C331.514 247.765 330.857 248.061 330.336 248.652C329.814 249.244 329.554 250.138 329.554 251.333ZM338.246 256.773L339.784 257.002C339.849 257.477 340.027 257.822 340.32 258.039C340.713 258.332 341.249 258.479 341.929 258.479C342.661 258.479 343.227 258.332 343.625 258.039C344.023 257.746 344.293 257.336 344.434 256.809C344.516 256.486 344.554 255.81 344.548 254.778C343.856 255.593 342.995 256 341.964 256C340.681 256 339.688 255.537 338.984 254.611C338.281 253.686 337.93 252.575 337.93 251.28C337.93 250.39 338.091 249.569 338.413 248.819C338.735 248.063 339.201 247.48 339.811 247.07C340.426 246.66 341.146 246.455 341.973 246.455C343.074 246.455 343.982 246.9 344.697 247.791V246.666H346.156V254.734C346.156 256.188 346.007 257.216 345.708 257.819C345.415 258.429 344.946 258.909 344.302 259.261C343.663 259.612 342.875 259.788 341.938 259.788C340.824 259.788 339.925 259.536 339.239 259.032C338.554 258.534 338.223 257.781 338.246 256.773ZM339.556 251.166C339.556 252.391 339.799 253.284 340.285 253.847C340.771 254.409 341.381 254.69 342.113 254.69C342.84 254.69 343.449 254.412 343.941 253.855C344.434 253.293 344.68 252.414 344.68 251.219C344.68 250.076 344.425 249.215 343.915 248.635C343.411 248.055 342.802 247.765 342.087 247.765C341.384 247.765 340.786 248.052 340.294 248.626C339.802 249.194 339.556 250.041 339.556 251.166ZM348.538 256V246.666H349.962V248.081C350.325 247.419 350.659 246.982 350.964 246.771C351.274 246.561 351.614 246.455 351.983 246.455C352.517 246.455 353.059 246.625 353.609 246.965L353.064 248.433C352.678 248.204 352.291 248.09 351.904 248.09C351.559 248.09 351.248 248.195 350.973 248.406C350.697 248.611 350.501 248.898 350.384 249.268C350.208 249.83 350.12 250.445 350.12 251.113V256H348.538ZM360.641 254.849C360.055 255.347 359.489 255.698 358.944 255.903C358.405 256.108 357.825 256.211 357.204 256.211C356.179 256.211 355.391 255.962 354.84 255.464C354.289 254.96 354.014 254.318 354.014 253.539C354.014 253.082 354.116 252.666 354.321 252.291C354.532 251.91 354.805 251.605 355.139 251.377C355.479 251.148 355.859 250.976 356.281 250.858C356.592 250.776 357.061 250.697 357.688 250.621C358.965 250.469 359.905 250.287 360.509 250.076C360.515 249.859 360.518 249.722 360.518 249.663C360.518 249.019 360.368 248.564 360.069 248.301C359.665 247.943 359.064 247.765 358.268 247.765C357.523 247.765 356.973 247.896 356.615 248.16C356.264 248.418 356.003 248.878 355.833 249.54L354.286 249.329C354.427 248.667 354.658 248.134 354.98 247.729C355.303 247.319 355.769 247.006 356.378 246.789C356.987 246.566 357.693 246.455 358.496 246.455C359.293 246.455 359.94 246.549 360.438 246.736C360.937 246.924 361.303 247.161 361.537 247.448C361.771 247.729 361.936 248.087 362.029 248.521C362.082 248.79 362.108 249.276 362.108 249.979V252.089C362.108 253.56 362.141 254.491 362.205 254.884C362.275 255.271 362.41 255.643 362.609 256H360.957C360.793 255.672 360.688 255.288 360.641 254.849ZM360.509 251.315C359.935 251.55 359.073 251.749 357.925 251.913C357.274 252.007 356.814 252.112 356.545 252.229C356.275 252.347 356.067 252.52 355.921 252.748C355.774 252.971 355.701 253.22 355.701 253.495C355.701 253.917 355.859 254.269 356.176 254.55C356.498 254.831 356.967 254.972 357.582 254.972C358.191 254.972 358.733 254.84 359.208 254.576C359.683 254.307 360.031 253.94 360.254 253.478C360.424 253.12 360.509 252.593 360.509 251.896V251.315ZM364.569 256V246.666H365.984V247.976C366.277 247.519 366.667 247.152 367.153 246.877C367.64 246.596 368.193 246.455 368.814 246.455C369.506 246.455 370.071 246.599 370.511 246.886C370.956 247.173 371.27 247.574 371.451 248.09C372.189 247 373.15 246.455 374.334 246.455C375.26 246.455 375.972 246.713 376.47 247.229C376.968 247.738 377.217 248.526 377.217 249.593V256H375.644V250.12C375.644 249.487 375.591 249.033 375.485 248.758C375.386 248.477 375.201 248.251 374.932 248.081C374.662 247.911 374.346 247.826 373.982 247.826C373.326 247.826 372.781 248.046 372.348 248.485C371.914 248.919 371.697 249.616 371.697 250.577V256H370.115V249.936C370.115 249.232 369.986 248.705 369.729 248.354C369.471 248.002 369.049 247.826 368.463 247.826C368.018 247.826 367.604 247.943 367.224 248.178C366.849 248.412 366.576 248.755 366.406 249.206C366.236 249.657 366.151 250.308 366.151 251.157V256H364.569ZM380.407 252.801L379.924 245.972V243.115H381.884V245.972L381.427 252.801H380.407ZM379.994 256V254.198H381.813V256H379.994ZM384.151 244.82V242.983H385.848V244.434C385.848 245.219 385.757 245.784 385.575 246.13C385.323 246.604 384.931 246.962 384.397 247.202L384.011 246.578C384.327 246.449 384.562 246.247 384.714 245.972C384.872 245.69 384.96 245.307 384.978 244.82H384.151ZM386.876 244.82V242.983H388.572V244.434C388.572 245.219 388.481 245.784 388.3 246.13C388.048 246.604 387.655 246.962 387.122 247.202L386.735 246.578C387.052 246.449 387.286 246.247 387.438 245.972C387.597 245.69 387.685 245.307 387.702 244.82H386.876ZM391.604 259.788H390.471C392.223 256.976 393.099 254.16 393.099 251.342C393.099 250.24 392.973 249.147 392.721 248.063C392.521 247.185 392.243 246.341 391.886 245.532C391.657 245.005 391.186 244.126 390.471 242.896H391.604C392.706 244.366 393.521 245.843 394.048 247.325C394.499 248.603 394.725 249.938 394.725 251.333C394.725 252.915 394.42 254.444 393.811 255.921C393.207 257.397 392.472 258.687 391.604 259.788Z" fill="white"/>
</svg>
